<svg xmlns="http://www.w3.org/2000/svg" xmlns:xlink="http://www.w3.org/1999/xlink" width="452" height="452" viewBox="0 0 452 452">
    <defs>
        <path id="a" d="M13.678.88C6.542.88.758 6.648.758 13.764V245.69c0 7.115 5.784 12.884 12.92 12.884h232.588c7.137 0 12.92-5.769 12.92-12.884V13.764c0-7.116-5.783-12.884-12.92-12.884"/>
        <path id="c" d="M13.678.88C6.542.88.758 6.648.758 13.764V245.69c0 7.115 5.784 12.884 12.92 12.884h232.588c7.137 0 12.92-5.769 12.92-12.884V13.764c0-7.116-5.783-12.884-12.92-12.884H13.678z"/>
    </defs>
    <g fill="none" fill-rule="evenodd">
        <path fill="#FEFEFE" d="M60.002 281.71c-3.532-2.965-4.001-8.24-1.046-11.763l21.925-26.129 144.986 121.657c7.382 6.195 18.415 5.245 24.593-2.117l121.31-144.573 26.204 21.988c3.533 2.964 4.002 8.24 1.046 11.762L249.948 430.192c-2.96 3.527-8.245 3.982-11.783 1.014L60.002 281.709z"/>
        <g transform="rotate(40 -1.186 331.507)">
            <mask id="b" fill="#fff">
                <use xlink:href="#a"/>
            </mask>
            <path fill="#020303" d="M-175.932.53l-203.202 267.278M-128.631.531l-203.201 267.277M-81.33.531l-203.202 267.277M-34.029.531l-203.2 267.277M13.27.531L-189.93 267.808M60.573.531l-203.201 267.277M107.874.531L-95.328 267.808M155.176.531L-48.026 267.808M202.476.531L-.725 267.808M249.776.531L46.574 267.808M297.078.531L93.876 267.808M344.38.531L141.177 267.808M391.68.531L188.48 267.808M438.98.531l-203.2 267.277M486.281.531L283.08 267.808M533.583.531L330.38 267.808M580.884.531L377.682 267.808M628.185.531L424.983 267.808" mask="url(#b)"/>
        </g>
        <g transform="rotate(40 -1.186 331.507)">
            <mask id="d" fill="#fff">
                <use xlink:href="#c"/>
            </mask>
            <path fill="#F9A819" d="M-372.626 272.727l-13.015-9.838L-182.44-4.388l13.015 9.838-203.201 267.277zm47.301 0l-13.015-9.838L-135.138-4.388l13.015 9.838-203.202 267.277zm47.301 0l-13.015-9.838L-87.837-4.388l13.014 9.838-203.201 267.277zm47.3 0l-13.014-9.838L-40.536-4.388-27.52 5.45l-203.202 267.277zm47.301 0l-13.014-9.838L6.765-4.388 19.779 5.45l-203.202 267.277zm47.302 0l-13.014-9.838L54.065-4.388 67.082 5.45l-203.202 267.277zm47.3 0l-13.014-9.838L101.367-4.388l13.015 9.838L-88.82 272.727zm47.303 0l-13.016-9.838L148.668-4.388l13.014 9.838-203.2 267.277zm47.3 0l-13.015-9.838L195.97-4.388l13.014 9.838L5.781 272.727zm47.3 0l-13.014-9.838L243.27-4.388l13.014 9.838L53.082 272.727zm47.302 0l-13.015-9.838L290.57-4.388l13.016 9.838-203.202 267.277zm47.3 0l-13.015-9.838L337.871-4.388l13.015 9.838-203.202 267.277zm47.302 0l-13.015-9.838L385.173-4.388l13.014 9.838-203.2 267.277zm47.3 0l-13.014-9.838L432.474-4.388l13.014 9.838-203.202 267.277zm47.302 0l-13.015-9.838L479.775-4.388 492.79 5.45 289.588 272.727zm47.3 0l-13.014-9.838L527.075-4.388 540.09 5.45 336.888 272.727zm47.302 0l-13.015-9.838L574.377-4.388l13.015 9.838L384.19 272.727zm47.3 0l-13.014-9.838L621.677-4.388l13.015 9.838L431.49 272.727z" mask="url(#d)"/>
        </g>
        <g>
            <path fill="#020303" d="M60.002 281.71c-3.532-2.965-4.001-8.24-1.046-11.763l21.925-26.129 144.986 121.657c7.382 6.195 18.415 5.245 24.593-2.117l121.31-144.573 26.204 21.988c3.533 2.964 4.002 8.24 1.046 11.762L249.948 430.192c-2.96 3.527-8.245 3.982-11.783 1.014L60.002 281.709zM46.21 214.553c.466.494.953.97 1.485 1.416l26.203 21.988-21.925 26.129a17.35 17.35 0 0 0-1.212 1.648l-4.55-51.181zm318.578-1.629L243.476 357.498c-2.955 3.522-8.234 3.977-11.766 1.013L86.725 236.854 208.036 92.28c2.956-3.522 8.233-3.976 11.766-1.012l144.985 121.657zm26.723-44.856c3.532 2.963 4.002 8.24 1.046 11.762l-21.926 26.13L225.645 84.304c-7.383-6.195-18.415-5.245-24.593 2.116L79.741 230.994l-26.204-21.988c-3.532-2.964-4-8.242-1.046-11.763L201.564 19.585c2.96-3.527 8.245-3.981 11.782-1.013L391.51 168.069zm9.241 15.975l4.551 51.181c-.464-.493-.953-.97-1.484-1.416l-26.204-21.988 21.926-26.13c.444-.53.84-1.082 1.211-1.647zm14.104 55.834l-5.517-62.048a17.4 17.4 0 0 0-6.19-11.863l-5.795-4.862L219.19 11.608l-.01-.008c-7.383-6.196-18.415-5.246-24.593 2.116l-.007.009L45.507 191.383l-4.848 5.778a17.3 17.3 0 0 0-4.002 12.74l5.517 62.048a17.398 17.398 0 0 0 6.19 11.863l5.795 4.861L232.322 438.17l.01.008c7.382 6.195 18.415 5.246 24.592-2.116l.008-.01 149.072-177.657 4.848-5.777a17.299 17.299 0 0 0 4.003-12.74z"/>
            <path fill="#FEFEFE" d="M86.725 236.854L231.71 358.51c3.532 2.963 8.81 2.509 11.766-1.014l121.31-144.572 5.843-6.964 21.927-26.13c2.955-3.523 2.486-8.799-1.046-11.762L213.347 18.572c-3.538-2.968-8.823-2.514-11.784 1.014L52.492 197.243c-2.956 3.522-2.487 8.8 1.045 11.763l26.204 21.988 6.984 5.86z"/>
            <path fill="#EF4F57" d="M47.694 215.97a17.482 17.482 0 0 1-1.484-1.416l4.55 51.182c.37-.566.768-1.119 1.212-1.648l21.926-26.13-26.204-21.988zM403.818 233.809c.531.446 1.02.923 1.484 1.416l-4.55-51.182a17.363 17.363 0 0 1-1.213 1.648l-21.925 26.13 26.204 21.988z"/>
        </g>
        <path fill="#020303" fill-rule="nonzero" d="M221.483 177.022l2.873 2.41c2.68 2.25 5.265 3.798 7.753 4.645 2.487.848 4.855 1.137 7.103.87 2.248-.268 4.299-.962 6.153-2.082 1.854-1.12 3.52-2.562 4.998-4.324a17.845 17.845 0 0 0 3.1-5.329c.718-1.943 1.026-3.905.923-5.883-.102-1.979-.61-3.94-1.526-5.882-.915-1.943-2.33-3.718-4.245-5.325-3.37-2.828-6.698-4.347-9.981-4.557-3.284-.21-6.688.23-10.213 1.32a2.078 2.078 0 0 1-1.603-.073 1.95 1.95 0 0 1-1.062-1.185l-3.787-10.422a2.078 2.078 0 0 1 .073-1.604 1.95 1.95 0 0 1 1.185-1.061 38.166 38.166 0 0 1 8.188-1.941c2.844-.355 5.756-.326 8.738.087 2.982.414 5.985 1.269 9.009 2.566 3.023 1.297 5.952 3.134 8.787 5.513 3.983 3.342 7.015 6.963 9.095 10.863 2.08 3.9 3.312 7.837 3.696 11.814a28.581 28.581 0 0 1-1.27 11.663c-1.228 3.799-3.193 7.307-5.893 10.524-5.399 6.435-11.503 10.287-18.313 11.557-6.81 1.27-14.143-.413-22.002-5.049l-8.485 10.112c-.386.46-.88.698-1.481.715-.602.018-1.094-.135-1.477-.456l-8.848-7.424c-1.073-.9-1.159-1.886-.26-2.959l15.813-18.844c.322-.383.78-.619 1.376-.706a1.924 1.924 0 0 1 1.583.447zm-37.42 35.96c2.058-2.451 4.623-3.758 7.696-3.92 3.074-.163 5.721.688 7.943 2.552 2.298 1.928 3.634 4.42 4.008 7.475.373 3.055-.468 5.808-2.525 8.26-2.121 2.527-4.719 3.873-7.792 4.035-3.074.162-5.76-.72-8.058-2.649-2.221-1.864-3.519-4.323-3.893-7.378-.373-3.055.5-5.847 2.622-8.375z"/>
    </g>
</svg>
