<svg xmlns="http://www.w3.org/2000/svg" xmlns:xlink="http://www.w3.org/1999/xlink" width="196" height="196" viewBox="0 0 196 196">
    <defs>
        <path id="a" d="M7.694.495C3.68.495.426 3.74.426 7.742v130.46c0 4.002 3.254 7.246 7.268 7.246h130.83c4.015 0 7.268-3.244 7.268-7.247V7.742c0-4.002-3.253-7.247-7.267-7.247"/>
        <path id="c" d="M7.694.495C3.68.495.426 3.74.426 7.742v130.46c0 4.002 3.254 7.246 7.268 7.246h130.83c4.015 0 7.268-3.244 7.268-7.247V7.742c0-4.002-3.253-7.247-7.267-7.247H7.694z"/>
    </defs>
    <g fill="none" fill-rule="evenodd">
        <path fill="#FEFEFE" d="M39.81 177.687c-2.585-.226-4.503-2.506-4.278-5.082l1.673-19.114 106.056 9.28c5.4.472 10.178-3.525 10.649-8.91l9.252-105.756 19.168 1.677c2.584.226 4.502 2.506 4.277 5.083l-11.37 129.955c-.226 2.58-2.514 4.496-5.102 4.27L39.809 177.686z"/>
        <g transform="rotate(5 -374.728 528.071)">
            <mask id="b" fill="#fff">
                <use xlink:href="#a"/>
            </mask>
            <path fill="#020303" d="M-98.962.299l-114.3 150.343M-72.356.3l-114.3 150.343M-45.749.3l-114.301 150.343M-19.141.3l-114.3 150.343M7.464.3l-114.3 150.343M34.072.3L-80.23 150.642M60.68.3l-114.3 150.343M87.285.3l-114.3 150.343M113.892.3L-.408 150.642M140.499.3L26.2 150.642M167.105.3l-114.3 150.343M193.712.3L79.412 150.642M220.32.3l-114.3 150.343M246.925.3l-114.3 150.343M273.534.3L159.233 150.642M300.14.3l-114.3 150.343M326.746.3l-114.3 150.343M353.353.3L239.053 150.642" mask="url(#b)"/>
        </g>
        <g transform="rotate(5 -374.728 528.071)">
            <mask id="d" fill="#fff">
                <use xlink:href="#c"/>
            </mask>
            <path fill="#F9A819" d="M-209.602 153.41l-7.32-5.535 114.3-150.343 7.32 5.534-114.3 150.343zm26.607 0l-7.321-5.535 114.3-150.343 7.322 5.534-114.301 150.343zm26.606 0l-7.32-5.535L-49.41-2.468l7.321 5.534-114.3 150.343zm26.607 0l-7.32-5.535 114.3-150.343 7.321 5.534-114.3 150.343zm26.607 0l-7.32-5.535L3.804-2.468l7.32 5.534-114.3 150.343zm26.607 0l-7.32-5.535L30.411-2.468l7.321 5.534-114.301 150.343zm26.607 0l-7.321-5.535L57.018-2.468l7.322 5.534-114.301 150.343zm26.607 0l-7.321-5.535L83.625-2.468l7.321 5.534-114.3 150.343zm26.606 0l-7.32-5.535 114.3-150.343 7.321 5.534L3.252 153.409zm26.607 0l-7.32-5.535 114.3-150.343 7.32 5.534-114.3 150.343zm26.607 0l-7.32-5.535 114.3-150.343 7.32 5.534-114.3 150.343zm26.607 0l-7.322-5.535L190.053-2.468l7.32 5.534-114.3 150.343zm26.607 0l-7.321-5.535 114.3-150.343 7.321 5.534-114.3 150.343zm26.606 0l-7.32-5.535 114.3-150.343 7.32 5.534-114.3 150.343zm26.607 0l-7.32-5.535 114.3-150.343 7.321 5.534-114.301 150.343zm26.607 0l-7.32-5.535L296.48-2.468l7.32 5.534-114.3 150.343zm26.607 0l-7.321-5.535 114.3-150.343 7.322 5.534-114.301 150.343zm26.607 0l-7.321-5.535 114.3-150.343 7.321 5.534-114.3 150.343z" mask="url(#d)"/>
        </g>
        <g>
            <path fill="#020303" d="M39.81 177.687c-2.585-.226-4.503-2.506-4.278-5.082l1.673-19.114 106.056 9.28c5.4.472 10.178-3.525 10.649-8.91l9.252-105.756 19.168 1.677c2.584.226 4.502 2.506 4.277 5.083l-11.37 129.955c-.226 2.58-2.514 4.496-5.102 4.27L39.809 177.686zm-28.023-26.493c.374.077.752.14 1.141.174l19.168 1.677-1.672 19.113a9.76 9.76 0 0 0-.027 1.15l-18.61-22.114zM158.053 47.658l-9.252 105.755c-.225 2.576-2.51 4.49-5.094 4.263L37.65 148.397l9.253-105.755c.225-2.576 2.51-4.488 5.094-4.262l106.056 9.278zm-2.159-29.29c2.584.226 4.503 2.506 4.277 5.082L158.5 42.564 52.443 33.286c-5.4-.473-10.178 3.524-10.65 8.91L32.543 147.95l-19.168-1.677c-2.584-.226-4.503-2.506-4.278-5.082l11.37-129.957c.226-2.58 2.515-4.494 5.102-4.268l130.326 11.402zm9.413 4.38l18.61 22.114a9.842 9.842 0 0 0-1.141-.174l-19.168-1.677 1.672-19.114a9.75 9.75 0 0 0 .027-1.15zm24.512 21.176l-22.56-26.81a9.788 9.788 0 0 0-6.68-3.47l-4.239-.37L26.014 1.872h-.007c-5.401-.473-10.178 3.523-10.65 8.909v.007L3.987 140.744l-.37 4.226a9.732 9.732 0 0 0 2.267 7.162l22.561 26.81a9.786 9.786 0 0 0 6.68 3.469l4.239.37 130.325 11.402.007.001c5.4.472 10.178-3.525 10.65-8.91v-.007l11.37-129.955.37-4.226a9.73 9.73 0 0 0-2.267-7.162z"/>
            <path fill="#FEFEFE" d="M37.65 148.397l106.057 9.279c2.583.226 4.868-1.686 5.094-4.263l9.252-105.754.446-5.094 1.672-19.115c.225-2.576-1.693-4.856-4.276-5.082L25.568 6.966c-2.587-.226-4.876 1.688-5.102 4.269L9.096 141.19c-.225 2.577 1.694 4.857 4.277 5.083l19.169 1.677 5.108.447z"/>
            <path fill="#EF4F57" d="M12.928 151.367a9.833 9.833 0 0 1-1.14-.173l18.609 22.115a9.774 9.774 0 0 1 .027-1.15l1.672-19.115-19.168-1.677zM182.776 44.688c.388.034.768.097 1.14.174l-18.61-22.115c.012.38.008.763-.026 1.15l-1.673 19.114 19.169 1.677z"/>
        </g>
        <path fill="#020303" fill-rule="nonzero" d="M118.442 59.134l-5.034-.44a1 1 0 0 0-1.023.643l-3.253 8.638a1 1 0 0 1-1.023.644l-15.227-1.332a1 1 0 0 1-.892-.795l-1.871-9.12a1 1 0 0 0-.893-.794l-5.652-.495a1 1 0 0 0-1.017.628l-3.426 8.656a1 1 0 0 1-1.017.628l-15.227-1.332a1 1 0 0 1-.896-.812l-1.703-9.072a1 1 0 0 0-.895-.811l-3.76-.33-1.294-.113a.985.985 0 0 0-1.054 1.164l1.5 7.99a1 1 0 0 1-1.07 1.181l-1.403-.122a1 1 0 0 0-1.083.909l-.427 4.881a1 1 0 0 0 .909 1.083l3.881.34a1 1 0 0 1 .896.812l.94 5a1 1 0 0 1-1.07 1.181l-5.248-.459a1 1 0 0 0-1.084.91l-.427 4.88a1 1 0 0 0 .91 1.084l7.726.676a1 1 0 0 1 .896.812l3.685 19.634a1 1 0 0 0 .896.812l5.622.492a1 1 0 0 0 1.017-.628l7.408-18.697a1 1 0 0 1 1.017-.628l9.84.86a1 1 0 0 1 .892.796l4.048 19.7a1 1 0 0 0 .893.794l5.622.492a1 1 0 0 0 1.023-.644l7.04-18.696a1 1 0 0 1 1.022-.644l7.724.676a1 1 0 0 0 1.083-.91l.427-4.88a1 1 0 0 0-.909-1.084l-5.248-.46a1 1 0 0 1-.849-1.348l1.794-4.762a1 1 0 0 1 1.023-.643l3.881.34a1 1 0 0 0 1.084-.91l.427-4.881a1 1 0 0 0-.91-1.084l-1.402-.122a1 1 0 0 1-.849-1.349l2.858-7.59a1 1 0 0 0-.848-1.35zm-53.62 12.248l9.945.87a.5.5 0 0 1 .43.66l-2.108 6.152a.5.5 0 0 1-.516.337l-6.93-.607a.5.5 0 0 1-.45-.428l-.909-6.416a.5.5 0 0 1 .539-.568zm2.634 22.96l-1.609-8.37a.3.3 0 0 1 .321-.356l4.805.42a.3.3 0 0 1 .252.411l-3.196 7.951a.3.3 0 0 1-.573-.055zm13.167-14.886l2.474-6.12a.5.5 0 0 1 .507-.31l2.65.231a.5.5 0 0 1 .446.394l1.374 6.457a.5.5 0 0 1-.533.602l-6.498-.568a.5.5 0 0 1-.42-.686zM97.882 97.01l-1.767-8.385a.3.3 0 0 1 .32-.361l4.804.42a.3.3 0 0 1 .255.406l-3.039 7.965a.3.3 0 0 1-.573-.045zm5.058-14.953l-6.929-.606a.5.5 0 0 1-.45-.42l-1.007-6.425a.5.5 0 0 1 .538-.576l9.944.87a.5.5 0 0 1 .432.653l-2.009 6.161a.5.5 0 0 1-.519.343z"/>
    </g>
</svg>
