<svg xmlns="http://www.w3.org/2000/svg" xmlns:xlink="http://www.w3.org/1999/xlink" width="148" height="148" viewBox="0 0 148 148">
    <defs>
        <path id="a" d="M4.616.297a4.354 4.354 0 0 0-4.36 4.348v78.276a4.354 4.354 0 0 0 4.36 4.348h78.499a4.354 4.354 0 0 0 4.36-4.348V4.645a4.354 4.354 0 0 0-4.36-4.348"/>
        <path id="c" d="M4.616.297a4.354 4.354 0 0 0-4.36 4.348v78.276a4.354 4.354 0 0 0 4.36 4.348h78.499a4.354 4.354 0 0 0 4.36-4.348V4.645a4.354 4.354 0 0 0-4.36-4.348H4.616z"/>
    </defs>
    <g fill="none" fill-rule="evenodd">
        <path fill="#FEFEFE" d="M72.824 133.192a2.821 2.821 0 0 1-3.851-1.026l-5.756-9.97 55.319-31.938c2.817-1.627 3.789-5.235 2.167-8.044L88.856 27.052l9.998-5.772a2.821 2.821 0 0 1 3.85 1.026L141.84 90.09a2.826 2.826 0 0 1-1.038 3.854l-67.978 39.247z"/>
        <g transform="rotate(-30 127.276 -17.814)">
            <mask id="b" fill="#fff">
                <use xlink:href="#a"/>
            </mask>
            <path fill="#020303" d="M-59.377.18l-68.58 90.205M-43.414.18l-68.58 90.206M-27.45.18l-68.58 90.206M-11.485.18l-68.58 90.206M4.479.18L-64.1 90.385M20.444.18l-68.581 90.206M36.408.18l-68.581 90.206M52.372.18l-68.58 90.206M68.335.18L-.244 90.385M84.3.18L15.719 90.385M100.264.18l-68.58 90.206M116.227.18l-68.58 90.206M132.191.18l-68.58 90.206M148.156.18l-68.58 90.206M164.12.18L95.54 90.385M180.084.18l-68.58 90.206M196.048.18l-68.58 90.206M212.012.18l-68.58 90.206" mask="url(#b)"/>
        </g>
        <g transform="rotate(-30 127.276 -17.814)">
            <mask id="d" fill="#fff">
                <use xlink:href="#c"/>
            </mask>
            <path fill="#F9A819" d="M-125.761 92.045l-4.393-3.32 68.58-90.206 4.393 3.32-68.58 90.206zm15.964 0l-4.393-3.32L-45.61-1.48l4.394 3.32-68.581 90.206zm15.964 0l-4.393-3.32 68.58-90.206 4.393 3.32-68.58 90.206zm15.964 0l-4.392-3.32 68.58-90.206 4.393 3.32-68.581 90.206zm15.964 0l-4.392-3.32L2.283-1.48l4.393 3.32-68.581 90.206zm15.964 0l-4.392-3.32L18.247-1.48l4.393 3.32-68.58 90.206zm15.964 0l-4.392-3.32L34.21-1.48l4.393 3.32-68.58 90.206zm15.965 0l-4.393-3.32L50.175-1.48l4.393 3.32-68.58 90.206zm15.963 0l-4.392-3.32L66.139-1.48l4.393 3.32-68.58 90.206zm15.964 0l-4.392-3.32L82.103-1.48l4.393 3.32-68.58 90.206zm15.965 0l-4.393-3.32L98.067-1.48l4.393 3.32-68.58 90.206zm15.964 0l-4.393-3.32L114.03-1.48l4.393 3.32-68.58 90.206zm15.964 0l-4.393-3.32 68.58-90.206 4.393 3.32-68.58 90.206zm15.964 0l-4.393-3.32L145.96-1.48l4.393 3.32-68.58 90.206zm15.964 0l-4.392-3.32 68.58-90.206 4.392 3.32-68.58 90.206zm15.964 0l-4.392-3.32 68.58-90.206 4.392 3.32-68.58 90.206zm15.964 0l-4.392-3.32 68.58-90.206 4.393 3.32-68.58 90.206zm15.964 0l-4.392-3.32 68.58-90.206 4.392 3.32-68.58 90.206z" mask="url(#d)"/>
        </g>
        <g>
            <path fill="#020303" d="M72.824 133.192a2.821 2.821 0 0 1-3.851-1.026l-5.756-9.97 55.319-31.938c2.817-1.627 3.789-5.235 2.167-8.044L88.856 27.052l9.998-5.772a2.821 2.821 0 0 1 3.85 1.026L141.84 90.09a2.826 2.826 0 0 1-1.038 3.854l-67.978 39.247zm-22.89-3.378c.21-.09.417-.19.62-.307l9.998-5.772 5.756 9.97c.117.201.246.391.383.574l-16.757-4.465zM86.19 28.59l31.847 55.162a2.822 2.822 0 0 1-1.036 3.849l-55.32 31.938-31.847-55.162a2.821 2.821 0 0 1 1.037-3.848L86.19 28.59zM75.05 14.937a2.821 2.821 0 0 1 3.85 1.027l5.757 9.97-55.32 31.938c-2.816 1.626-3.788 5.235-2.167 8.044l31.848 55.161-9.998 5.773a2.822 2.822 0 0 1-3.852-1.026L6.033 58.039a2.825 2.825 0 0 1 1.038-3.854L75.05 14.937zm6.133-1.086l16.757 4.464c-.21.09-.418.19-.62.308l-9.998 5.772-5.757-9.97a5.85 5.85 0 0 0-.382-.574zm19.335 1.972L80.203 10.41a5.873 5.873 0 0 0-4.477.594l-2.21 1.276L5.537 51.528l-.003.002c-2.817 1.626-3.79 5.234-2.168 8.044l.002.003 39.136 67.785 1.273 2.205a5.839 5.839 0 0 0 3.578 2.74l20.315 5.412a5.872 5.872 0 0 0 4.477-.594l2.21-1.276 67.979-39.247.004-.002c2.816-1.627 3.789-5.235 2.167-8.044l-.002-.004-39.136-67.785-1.272-2.204a5.838 5.838 0 0 0-3.579-2.74z"/>
            <path fill="#FEFEFE" d="M61.683 119.539L117.002 87.6a2.821 2.821 0 0 0 1.036-3.848L86.191 28.591l-1.534-2.657-5.756-9.97a2.821 2.821 0 0 0-3.851-1.027L7.07 54.185a2.826 2.826 0 0 0-1.038 3.854l39.135 67.784a2.822 2.822 0 0 0 3.852 1.027l9.998-5.773 2.665-1.538z"/>
            <path fill="#EF4F57" d="M50.554 129.507a5.9 5.9 0 0 1-.62.307l16.757 4.465a5.864 5.864 0 0 1-.383-.575l-5.756-9.97-9.998 5.773zM97.32 18.623c.202-.117.41-.217.62-.308L81.183 13.85c.136.183.266.373.382.575l5.756 9.97 9.999-5.772z"/>
        </g>
        <g transform="rotate(-30 144.839 -37.631)">
            <path d="M33.712 8.424c-.195-2.775-2.68-5.049-5.654-5.049H9.084c-3.068 0-5.561 2.339-5.675 5.322a1.782 1.782 0 0 1-.034.288l.017 13.88c0 .738.302 1.456.83 1.972a2.9 2.9 0 0 0 2.016.813c.949 0 1.97-1.184 3.152-2.556.637-.737 1.36-1.576 2.18-2.34 1.095-1.022 3.455-2.04 4.665-2.32.793-.181 1.805-.209 2.336-.209.531 0 1.543.028 2.332.208 1.214.28 3.575 1.3 4.67 2.318.82.767 1.542 1.604 2.18 2.343 1.181 1.372 2.202 2.556 3.15 2.556.754 0 1.488-.295 2.016-.811.53-.518.831-1.236.831-1.973V8.944c-.025-.117-.019-.178-.019-.297-.01 0-.019-.113-.019-.223zm-22.73 6.088c-2.097 0-3.795-1.66-3.795-3.712 0-2.051 1.698-3.713 3.795-3.713 2.096 0 3.794 1.662 3.794 3.713s-1.698 3.712-3.794 3.712zm15.179-9.28c1.049 0 1.897.829 1.897 1.856 0 1.026-.848 1.856-1.897 1.856-1.05 0-1.898-.83-1.898-1.857 0-1.026.848-1.856 1.898-1.856zm-3.795 7.424c-1.05 0-1.898-.83-1.898-1.856 0-1.027.849-1.856 1.898-1.856s1.897.83 1.897 1.856c0 1.027-.848 1.856-1.897 1.856zm3.795 3.713c-1.05 0-1.898-.83-1.898-1.857 0-1.026.848-1.856 1.898-1.856 1.049 0 1.897.83 1.897 1.856 0 1.027-.848 1.857-1.897 1.857zm3.794-3.713c-1.049 0-1.897-.83-1.897-1.856 0-1.027.848-1.856 1.897-1.856 1.05 0 1.898.83 1.898 1.856 0 1.027-.848 1.856-1.898 1.856z"/>
            <path fill="#000" fill-rule="nonzero" d="M37.76 8.635C37.426 3.795 33.292 0 28.35 0H9.45C4.387 0 .268 3.854.025 8.793a3.66 3.66 0 0 0-.025.47v13.94c0 1.717.705 3.393 1.932 4.596A6.722 6.722 0 0 0 6.615 29.7c2.7 0 4.392-1.97 6.027-3.874.601-.7 1.221-1.424 1.89-2.047.448-.42 2.083-1.201 2.909-1.394.476-.11 2.444-.108 2.912-.002.83.193 2.465.976 2.913 1.394.669.625 1.289 1.35 1.89 2.049 1.637 1.905 3.328 3.874 6.029 3.874 1.748 0 3.455-.692 4.68-1.897a6.482 6.482 0 0 0 1.935-4.6V9.281c0-.176-.008-.334-.026-.482l-.014-.164zm-3.74 14.568c0 .737-.3 1.455-.828 1.973a2.882 2.882 0 0 1-2.007.812c-.945 0-1.962-1.185-3.14-2.557-.634-.736-1.354-1.576-2.17-2.342-1.091-1.02-3.443-2.038-4.652-2.319-.786-.18-1.794-.207-2.323-.207-.53 0-1.537.027-2.325.21-1.206.278-3.557 1.297-4.647 2.318-.819.764-1.537 1.602-2.172 2.34-1.18 1.372-2.196 2.556-3.141 2.556-.75 0-1.482-.295-2.01-.813a2.779 2.779 0 0 1-.825-1.97L3.763 9.321a1.84 1.84 0 0 0 .034-.288C3.91 6.051 6.394 3.712 9.45 3.712h18.9c2.962 0 5.438 2.274 5.632 5.05 0 .11.01.222.02.222 0 .119-.007.18.018.297v13.922z"/>
            <circle cx="26.325" cy="14.85" r="2.025" fill="#000" fill-rule="nonzero"/>
            <circle cx="30.375" cy="10.8" r="2.025" fill="#000" fill-rule="nonzero"/>
            <circle cx="26.325" cy="7.425" r="2.025" fill="#000" fill-rule="nonzero"/>
            <circle cx="22.95" cy="10.8" r="2.025" fill="#000" fill-rule="nonzero"/>
            <circle cx="11.137" cy="11.137" r="3.712" fill="#000" fill-rule="nonzero"/>
        </g>
    </g>
</svg>
