<svg xmlns="http://www.w3.org/2000/svg" xmlns:xlink="http://www.w3.org/1999/xlink" width="83" height="83" viewBox="0 0 83 83">
    <defs>
        <path id="a" d="M2.565.165A2.42 2.42 0 0 0 .142 2.581v43.486a2.42 2.42 0 0 0 2.423 2.416h43.61a2.419 2.419 0 0 0 2.422-2.416V2.581A2.419 2.419 0 0 0 46.175.165"/>
        <path id="c" d="M2.565.165A2.42 2.42 0 0 0 .142 2.581v43.486a2.42 2.42 0 0 0 2.423 2.416h43.61a2.419 2.419 0 0 0 2.422-2.416V2.581A2.419 2.419 0 0 0 46.175.165H2.565z"/>
    </defs>
    <g fill="none" fill-rule="evenodd">
        <path fill="#FEFEFE" d="M12.195 56.876a1.567 1.567 0 0 1-.576-2.138l3.197-5.538L45.55 66.943a3.276 3.276 0 0 0 4.472-1.191l17.693-30.646 5.555 3.207a1.567 1.567 0 0 1 .576 2.138L52.103 78.109a1.57 1.57 0 0 1-2.143.571L12.195 56.876z"/>
        <g transform="rotate(30 -9.873 70.223)">
            <mask id="b" fill="#fff">
                <use xlink:href="#a"/>
            </mask>
            <path fill="#020303" d="M-32.987.1l-38.1 50.114M-24.119.1l-38.1 50.114M-15.25.1l-38.1 50.114M-6.38.1l-38.1 50.114M2.487.1l-38.1 50.114M11.358.1l-38.1 50.114M20.225.1l-38.1 50.114M29.096.1l-38.1 50.114M37.963.1l-38.1 50.114M46.834.1L8.732 50.214M55.703.1L17.601 50.214M64.57.1l-38.1 50.114M73.44.1L35.34 50.214M82.309.1l-38.1 50.114M91.178.1l-38.1 50.114M100.047.1l-38.1 50.114M108.915.1l-38.1 50.114M117.784.1l-38.1 50.114" mask="url(#b)"/>
        </g>
        <g transform="rotate(30 -9.873 70.223)">
            <mask id="d" fill="#fff">
                <use xlink:href="#c"/>
            </mask>
            <path fill="#F9A819" d="M-69.867 51.136l-2.44-1.844 38.1-50.115 2.44 1.845-38.1 50.114zm8.869 0l-2.44-1.844 38.1-50.115 2.44 1.845-38.1 50.114zm8.868 0l-2.44-1.844 38.1-50.115 2.44 1.845-38.1 50.114zm8.87 0l-2.44-1.844L-7.6-.823l2.44 1.845-38.1 50.114zm8.868 0l-2.44-1.844L1.268-.823l2.44 1.845-38.1 50.114zm8.87 0l-2.44-1.844 38.1-50.115 2.44 1.845-38.1 50.114zm8.868 0l-2.44-1.844 38.1-50.115 2.44 1.845-38.1 50.114zm8.87 0l-2.441-1.844 38.1-50.115 2.44 1.845-38.1 50.114zm8.868 0l-2.44-1.844 38.1-50.115 2.44 1.845-38.1 50.114zm8.869 0l-2.44-1.844 38.1-50.115 2.44 1.845-38.1 50.114zm8.869 0l-2.44-1.844 38.1-50.115 2.44 1.845-38.1 50.114zm8.869 0l-2.44-1.844L63.35-.823l2.44 1.845-38.1 50.114zm8.869 0l-2.44-1.844L72.22-.823l2.44 1.845-38.1 50.114zm8.869 0l-2.44-1.844 38.1-50.115 2.44 1.845-38.1 50.114zm8.869 0l-2.44-1.844 38.1-50.115 2.44 1.845-38.1 50.114zm8.869 0l-2.44-1.844 38.1-50.115 2.44 1.845-38.1 50.114zm8.869 0l-2.44-1.844 38.1-50.115 2.44 1.845-38.1 50.114zm8.869 0l-2.44-1.844 38.1-50.115 2.44 1.845-38.1 50.114z" mask="url(#d)"/>
        </g>
        <g>
            <path fill="#020303" d="M12.195 56.876a1.567 1.567 0 0 1-.576-2.138l3.197-5.538L45.55 66.943a3.276 3.276 0 0 0 4.472-1.191l17.693-30.646 5.555 3.207a1.567 1.567 0 0 1 .576 2.138L52.103 78.109a1.57 1.57 0 0 1-2.143.571L12.195 56.876zM7.46 44.925c.102.076.208.148.32.213l5.555 3.207-3.198 5.539c-.065.112-.12.227-.17.343l-2.507-9.302zm58.773-10.673L48.541 64.897a1.568 1.568 0 0 1-2.14.57L15.67 47.724l17.693-30.646a1.567 1.567 0 0 1 2.14-.57l30.732 17.744zm3.474-9.153a1.567 1.567 0 0 1 .576 2.138l-3.198 5.538-30.732-17.743a3.276 3.276 0 0 0-4.473 1.191L14.188 46.87l-5.554-3.207a1.568 1.568 0 0 1-.576-2.138L29.8 3.865a1.57 1.57 0 0 1 2.142-.57l37.766 21.804zm2.227 2.649l2.506 9.302a3.28 3.28 0 0 0-.32-.213l-5.554-3.207 3.198-5.539a3.25 3.25 0 0 0 .17-.343zm4.422 9.85l-3.04-11.277a3.263 3.263 0 0 0-1.529-1.99l-1.228-.708L32.795 1.819l-.002-.002A3.276 3.276 0 0 0 28.32 3.01v.002L6.576 40.669l-.707 1.225a3.244 3.244 0 0 0-.324 2.483l3.039 11.277c.227.845.77 1.551 1.53 1.99l1.227.708 37.766 21.804.002.002a3.276 3.276 0 0 0 4.472-1.192l.001-.002 21.742-37.658.707-1.225a3.244 3.244 0 0 0 .325-2.483z"/>
            <path fill="#FEFEFE" d="M15.669 47.723L46.4 65.467a1.567 1.567 0 0 0 2.14-.57l17.693-30.645.852-1.477 3.198-5.538a1.567 1.567 0 0 0-.576-2.138L31.942 3.295a1.57 1.57 0 0 0-2.142.57L8.058 41.525a1.568 1.568 0 0 0 .576 2.138l5.554 3.207 1.48.854z"/>
            <path fill="#EF4F57" d="M7.781 45.138a3.278 3.278 0 0 1-.32-.213l2.507 9.303c.05-.117.105-.232.17-.344l3.198-5.539-5.555-3.207zM74.121 36.837c.113.065.218.137.32.213l-2.506-9.302c-.05.116-.106.231-.17.343l-3.198 5.54 5.554 3.206z"/>
        </g>
        <path fill="#020303" fill-rule="nonzero" d="M37.319 40.607l-2.581-1.49c-.311-.18-.38-.42-.205-.722l1.95-3.38-3.262-1.883c-.334-.193-.408-.452-.22-.777l1.367-2.369c.188-.325.45-.39.784-.198l3.262 1.884 1.95-3.379a.56.56 0 0 1 .335-.248.496.496 0 0 1 .414.03l2.58 1.49a.538.538 0 0 1 .269.364.56.56 0 0 1-.048.413l-1.95 3.379 3.226 1.863c.334.193.408.452.22.777l-1.367 2.369c-.188.325-.45.39-.784.198l-3.226-1.863-1.95 3.379c-.175.302-.43.356-.764.163z"/>
    </g>
</svg>
