<svg xmlns="http://www.w3.org/2000/svg" width="85" height="30" viewBox="0 0 85 30">
    <path fill="#FFF" fill-rule="evenodd" d="M14.412 0c.391 0 .588.183.588.546v3.866c0 .393-.197.588-.588.588H5v5h6.933c.364 0 .547.182.547.546v3.865a.593.593 0 0 1-.17.4.498.498 0 0 1-.377.189H5v10h9.412c.391 0 .588.183.588.547v3.865c0 .14-.057.273-.168.399a.54.54 0 0 1-.42.189H.588a.54.54 0 0 1-.42-.19.593.593 0 0 1-.168-.398V.546C0 .183.196 0 .588 0zm46.447 0c.392 0 .588.183.588.546v3.866c0 .393-.196.588-.588.588h-4.412v24.412c0 .14-.057.273-.167.399a.542.542 0 0 1-.422.189h-3.865a.498.498 0 0 1-.379-.19.593.593 0 0 1-.168-.398V5h-4.453c-.364 0-.546-.195-.546-.588V.546c0-.363.182-.546.546-.546zM30.827 0c1.204 0 2.338.231 3.403.693a8.902 8.902 0 0 1 2.773 1.87 8.91 8.91 0 0 1 1.87 2.773c.463 1.065.693 2.2.693 3.404v20.672c0 .14-.056.273-.168.4a.539.539 0 0 1-.42.188h-3.866a.498.498 0 0 1-.378-.189.594.594 0 0 1-.167-.4v-9.41h-7.522v9.41c0 .141-.056.274-.168.4a.498.498 0 0 1-.378.189h-3.866a.541.541 0 0 1-.42-.189.596.596 0 0 1-.167-.4V8.74c0-1.204.23-2.34.692-3.404a8.726 8.726 0 0 1 1.891-2.773 9.155 9.155 0 0 1 2.795-1.87A8.46 8.46 0 0 1 30.827 0zm47.444 6.269v6.75h6.75v3.963h-6.75v6.75h-3.963v-6.75h-6.75V13.02h6.75v-6.75h3.963zM30.827 5c-1.065 0-1.961.364-2.69 1.092-.727.73-1.092 1.612-1.092 2.648V15h7.522V8.74c0-1.036-.365-1.918-1.093-2.648C32.745 5.364 31.863 5 30.827 5z"/>
</svg>
