<svg xmlns="http://www.w3.org/2000/svg" xmlns:xlink="http://www.w3.org/1999/xlink" width="89" height="52" viewBox="0 0 89 52">
    <defs>
        <path id="a" d="M0 0h88v52.5H0z"/>
    </defs>
    <g fill="none" fill-rule="evenodd">
        <path fill="#FFF" d="M75.778 15v21.54c0 1.908-1.517 3.46-3.382 3.46h-57.73v9.04c0 .463.322.85.748.94l.013.002a.851.851 0 0 0 .15.017H84.619a.95.95 0 0 0 .937-.958V15.956v-.003a.927.927 0 0 0-.012-.144l-.006-.036a.935.935 0 0 0-.155-.368l-.222-.227a.916.916 0 0 0-.542-.178h-8.84z"/>
        <path fill="#FFF" d="M72.396 37.5a.95.95 0 0 0 .938-.96V3.46a.958.958 0 0 0-.659-.915l-.004-.002a.856.856 0 0 0-.083-.021l-.022-.004a.985.985 0 0 0-.15-.016H3.384a.92.92 0 0 0-.597.218l-.014.014a.888.888 0 0 0-.099.101l-.014.015a.969.969 0 0 0-.214.61V36.54c0 .226.077.434.206.598l.146.15c.16.131.364.21.586.21h69.013z"/>
        <path fill="#000" d="M19.163 9.373H9.587c-.272 0-.407.13-.407.387v20.45c0 .1.039.194.116.283a.37.37 0 0 0 .291.134h9.576a.37.37 0 0 0 .291-.134.427.427 0 0 0 .117-.283v-2.738c0-.258-.136-.388-.408-.388h-6.52V20h4.803c.097 0 .184-.045.262-.134a.425.425 0 0 0 .117-.283v-2.738c0-.258-.127-.388-.379-.388h-4.802v-3.542h6.52c.27 0 .407-.138.407-.416V9.76c0-.258-.136-.387-.408-.387M33.125 20h-5.21v-4.435c0-.734.252-1.359.756-1.876.505-.516 1.126-.774 1.863-.774a2.47 2.47 0 0 1 1.834.774c.504.517.757 1.142.757 1.876V20zm1.688-8.811a6.161 6.161 0 0 0-1.921-1.325 5.751 5.751 0 0 0-2.358-.491c-.834 0-1.62.164-2.357.49a6.335 6.335 0 0 0-1.936 1.326 6.19 6.19 0 0 0-1.79 4.376V30.21c0 .1.039.194.116.283.078.09.175.134.291.134h2.678c.097 0 .185-.045.262-.134a.427.427 0 0 0 .117-.283v-6.667h5.21v6.667c0 .1.039.194.116.283.078.09.165.134.262.134h2.678a.37.37 0 0 0 .29-.134.426.426 0 0 0 .117-.283V15.565c0-.853-.16-1.657-.48-2.412a6.322 6.322 0 0 0-1.295-1.964zM51.338 9.373h-9.605c-.252 0-.379.13-.379.387v2.739c0 .278.127.416.379.416h3.085V30.21c0 .1.039.194.116.283.078.09.165.134.262.134h2.678a.372.372 0 0 0 .292-.134.429.429 0 0 0 .116-.283V12.915h3.056c.271 0 .407-.138.407-.416V9.76c0-.258-.136-.387-.407-.387M62.534 18.596v-4.782h-2.745v4.782h-4.676v2.808h4.676v4.782h2.745v-4.782h4.676v-2.808z"/>
        <g>
            <mask id="b" fill="#fff">
                <use xlink:href="#a"/>
            </mask>
            <path fill="#000" d="M12.222 40v6.929l-6.774-6.93h6.774zM75.778 5.577l6.765 6.923h-6.765V5.577zM2.651 37.139a.966.966 0 0 1-.206-.598V3.459c0-.231.08-.444.214-.61l.014-.015.046-.053.052-.048.015-.014a.92.92 0 0 1 .596-.219H72.4l.018.001c.026 0 .053.002.079.005.024.002.047.006.07.01l.022.005a.879.879 0 0 1 .084.021l.003.002a.958.958 0 0 1 .659.915V36.54a.95.95 0 0 1-.938.959H3.383a.92.92 0 0 1-.586-.211l-.146-.15zM15.578 50a.968.968 0 0 1-.151-.017l-.013-.002a.956.956 0 0 1-.747-.94V40h57.729c1.865 0 3.382-1.552 3.382-3.46V15h8.84c.202 0 .389.066.542.178l.222.227a.93.93 0 0 1 .126.256.883.883 0 0 1 .03.112l.005.036a.965.965 0 0 1 .012.144v33.088a.95.95 0 0 1-.937.959H15.602l-.024-.001zM88 15.938a4.45 4.45 0 0 0-.01-.227l-.006-.081a3.234 3.234 0 0 0-.025-.209l-.02-.117a3.65 3.65 0 0 0-.269-.834l-.015-.031a3.434 3.434 0 0 0-.13-.244l-.028-.049a3.347 3.347 0 0 0-.148-.224l-.026-.036c-.016-.022-.03-.045-.047-.067l-.045-.058-.03-.031a3.456 3.456 0 0 0-.402-.411L74.981 1.225A3.342 3.342 0 0 0 72.742.018h-.009a3.247 3.247 0 0 0-.163-.013h-.022A3.007 3.007 0 0 0 72.4 0H3.382C1.517 0 0 1.552 0 3.46v33.085l.001.03c.001.076.005.15.01.224l.005.074a3.369 3.369 0 0 0 .093.537l.02.076a3.593 3.593 0 0 0 .647 1.264l.037.045.058.06c.079.09.162.174.248.254l11.917 12.188a3.345 3.345 0 0 0 2.395 1.198c.056.003.112.005.169.005h69.018c1.865 0 3.382-1.552 3.382-3.46V15.956v-.017z" mask="url(#b)"/>
        </g>
        <path fill="#FF4C54" d="M75.778 12.5h6.765l-6.765-6.923zM12.222 40H5.448l6.774 6.929z"/>
        <path fill="#FCA800" d="M19.043 40l-4.376 5.904v3.137c0 .196.06.376.159.528l7.093-9.57h-2.876zM34.418 50l7.412-10h-2.876l-7.412 10zM27.78 50l7.413-10h-2.876l-7.412 10zM14.667 40v.829l.614-.83zM21.143 50l7.413-10H25.68l-7.412 10zM80.878 50l4.677-6.31v-3.88L78.002 50zM85.555 49.04v-.276l-.915 1.234a.95.95 0 0 0 .915-.957M74.241 50l11.314-15.264v-3.88L71.365 50zM41.055 50l7.412-10h-2.875l-7.413 10zM77.397 15l-1.62 2.185v3.88L80.274 15zM54.33 50l7.412-10h-2.876l-7.412 10zM47.692 50l7.413-10h-2.876l-7.413 10zM67.604 50l17.951-24.218v-3.88l-9.777 13.19v1.449c0 1.907-1.517 3.459-3.382 3.459h-.256l-7.412 10h2.876zM85.555 15.956v-.003a.966.966 0 0 0-.012-.144l-.006-.036a.883.883 0 0 0-.072-.222.93.93 0 0 0-.083-.146l-.222-.227a.916.916 0 0 0-.542-.178h-.584l-8.256 11.139v3.88l9.777-13.19v-.873zM60.967 50l7.412-10h-2.876l-7.412 10z"/>
    </g>
</svg>
