<svg xmlns="http://www.w3.org/2000/svg" width="56" height="56" viewBox="0 0 56 56">
    <g fill="none" fill-rule="evenodd">
        <circle cx="30.333" cy="25.667" r="23.333" fill="#FCA800"/>
        <g fill="#000" fill-rule="nonzero">
            <path d="M23.333 9.333C10.467 9.333 0 19.801 0 32.667S10.467 56 23.333 56C36.2 56 46.667 45.533 46.667 32.667c0-12.866-10.468-23.334-23.334-23.334zm0 42c-10.292 0-18.666-8.374-18.666-18.666C4.667 22.374 13.04 14 23.333 14 33.626 14 42 22.374 42 32.667c0 10.292-8.374 18.666-18.667 18.666z"/>
            <path d="M25.667 21H21v14h14v-4.667h-9.333z"/>
        </g>
    </g>
</svg>
