<svg xmlns="http://www.w3.org/2000/svg" width="56" height="56" viewBox="0 0 56 56">
    <g fill="none" fill-rule="evenodd">
        <circle cx="32.667" cy="25.667" r="23.333" fill="#FCA800"/>
        <path fill="#000" fill-rule="nonzero" d="M46.102 21h-4.849l-1.969 7H27.867l-2.098-7h-4.872L18.8 28H7.383l-1.97-7H.565l1.969 7H0v4.667h3.845l1.314 4.666H0V42h6.47l3.939 14h4.86l4.2-14h7.73l4.2 14h4.861l3.939-14h6.468v-4.667h-5.16l1.314-4.666h3.846V28h-2.534l1.969-7zM8.696 32.667h8.701l-1.4 4.666h-5.99l-1.31-4.666zm4.21 14.973L11.32 42h3.276l-1.691 5.64zm7.963-10.307l1.4-4.666h2.128l1.4 4.666H20.87zM33.761 47.64L32.069 42h3.276l-1.584 5.64zm2.898-10.307h-5.99l-1.4-4.666h8.701l-1.311 4.666z"/>
    </g>
</svg>
