<svg xmlns="http://www.w3.org/2000/svg" width="56" height="56" viewBox="0 0 56 56">
    <g fill="none" fill-rule="evenodd">
        <circle cx="32.667" cy="23.333" r="23.333" fill="#FCA800"/>
        <path fill="#000" fill-rule="nonzero" d="M44.088 24.624l-4.666-9.334A2.336 2.336 0 0 0 37.333 14H25.667c-.885 0-1.692.5-2.089 1.29l-4.02 8.043H9.333c-.884 0-1.691.5-2.088 1.29l-4.667 9.334a2.333 2.333 0 0 0 0 2.088l4.667 9.334a2.338 2.338 0 0 0 2.088 1.288h10.225l4.023 8.043A2.33 2.33 0 0 0 25.667 56h11.666c.885 0 1.692-.5 2.089-1.29l4.666-9.334a2.333 2.333 0 0 0 0-2.088L39.942 35l4.144-8.29c.329-.656.329-1.43.002-2.086zm-16.98-5.957h8.783l3.5 7-3.5 7H27.11l-3.5-7 3.5-7zM7.276 35l3.5-7h8.783l3.5 7-3.5 7h-8.783l-3.5-7zm28.616 16.333H27.11l-3.5-7 3.5-7h8.782l3.5 7-3.5 7z"/>
    </g>
</svg>
