<svg xmlns="http://www.w3.org/2000/svg" width="445" height="174" viewBox="0 0 445 174">
    <path fill="#F8F8FA" fill-rule="evenodd" d="M83.388 0c2.266 0 3.405 1.059 3.405 3.168V25.59c0 2.277-1.139 3.412-3.405 3.412H28.93v28.996h40.114c2.104 0 3.163 1.06 3.163 3.17v22.42c0 .817-.329 1.586-.978 2.315-.65.73-1.374 1.098-2.185 1.098H28.93v58h54.457c2.266 0 3.405 1.06 3.405 3.17v22.419c0 .815-.33 1.584-.975 2.313-.65.732-1.46 1.098-2.43 1.098H3.403c-.97 0-1.783-.366-2.433-1.098-.647-.73-.97-1.498-.97-2.313V3.169C0 1.058 1.132 0 3.403 0zm81.496 0c6.975 0 13.545 1.341 19.715 4.018 6.165 2.682 11.523 6.302 16.066 10.846 4.544 4.553 8.152 9.915 10.834 16.084 2.679 6.177 4.013 12.762 4.013 19.742v119.899c0 .815-.323 1.584-.971 2.316-.648.729-1.46 1.095-2.431 1.095h-22.401c-.81 0-1.54-.366-2.188-1.095-.648-.732-.972-1.501-.972-2.316v-54.586h-43.575v54.586c0 .815-.329 1.584-.976 2.316-.648.729-1.38 1.095-2.189 1.095h-22.396c-.971 0-1.786-.366-2.436-1.095-.645-.732-.969-1.501-.969-2.316V50.69c0-6.98 1.34-13.565 4.011-19.742 2.68-6.17 6.332-11.53 10.957-16.084 4.627-4.544 10.016-8.164 16.189-10.846C151.33 1.341 157.902 0 164.885 0zm161.971 0c2.267 0 3.401 1.059 3.401 3.168V25.59c0 2.277-1.134 3.412-3.4 3.412h-25.53v141.588c0 .815-.328 1.584-.967 2.313-.654.732-1.465 1.098-2.438 1.098h-22.365c-.814 0-1.542-.366-2.191-1.098-.647-.73-.973-1.498-.973-2.313V29h-25.768c-2.105 0-3.161-1.135-3.161-3.412V3.17c0-2.11 1.056-3.169 3.16-3.169zm78.91 36.127v39.327H445v23.092h-39.234v39.327H382.73V98.546h-39.234V75.454h39.234V36.127h23.036zm-240.88-7.126c-6.17 0-11.364 2.112-15.584 6.334-4.217 4.232-6.327 9.348-6.327 15.355V87h43.575V50.69c0-6.007-2.112-11.123-6.332-15.355-4.222-4.222-9.332-6.334-15.333-6.334z"/>
</svg>
