<svg xmlns="http://www.w3.org/2000/svg" width="150" height="60" viewBox="0 0 150 60">
    <g fill="none" fill-rule="evenodd">
        <path fill="#FFF" stroke="#222" stroke-width="2" d="M149 59V10.414L139.586 1H1v48.586L10.414 59H149z"/>
        <path fill="#222" fill-rule="nonzero" d="M38.19 21.934v7.92H25.392v-7.92H38.19zm-10.836 6.228h8.874v-4.518h-8.874v4.518zm-2.808 5.778v-1.728h14.49v1.728h-6.3v4.392h-1.944V33.94h-6.246zm20.088-5.886v2.664h11.034v1.692h-2.574v3.24h3.222v1.692h-14.49V35.65h3.33v-3.24h-2.484v-6.048h10.836v-2.61H42.672v-1.728H55.47v6.03H44.634zm6.498 4.356H47.1v3.24h4.032v-3.24zm8.424-6.966v-1.692h2.358v-2.484h1.908v2.484h2.322v1.692h-2.322v3.87c0 3.708.954 5.058 2.52 5.85v1.8c-1.692-.594-2.862-1.728-3.492-3.024-.594 1.296-1.764 2.43-3.456 3.006v-1.782c1.53-.792 2.52-2.124 2.52-5.85v-3.87h-2.358zm5.67 4.932v-1.71h2.412v-6.822h1.908v16.02h-1.908v-7.488h-2.412zm7.722 7.686H71.04V21.736h1.908v16.326zM85.53 24.436h-9.288v-1.602h3.726v-1.566h1.944v1.566h3.618v1.602zm-6.912 3.87c0 .432.216.774.558 1.026.414.306 1.008.468 1.728.468.738 0 1.368-.18 1.8-.504a1.22 1.22 0 0 0 .468-.99c0-.414-.18-.774-.522-1.026-.414-.324-1.044-.468-1.746-.468-.684 0-1.314.162-1.728.468-.342.252-.558.612-.558 1.026zm-1.89 0c0-.954.432-1.71 1.17-2.232.756-.54 1.818-.81 3.006-.81 1.206 0 2.25.288 2.988.81s1.17 1.296 1.17 2.232c0 .99-.432 1.728-1.206 2.25-.738.504-1.782.774-2.952.774-1.224 0-2.304-.288-3.06-.846-.702-.522-1.116-1.242-1.116-2.178zm13.284 3.258H88.05v-3.222h-2.556V26.65h2.556v-4.914h1.962v9.828zm-12.204 6.66v-5.706h12.204v5.706H77.808zm10.242-3.996h-8.28v2.34h8.28v-2.34zm9.036-10.62v-2.34h1.962v2.34h3.69V25.3h-9.306v-1.692h3.654zm-1.044 8.316c0 1.548.252 2.646.864 3.222.324.288.738.45 1.242.45.486 0 .864-.162 1.17-.432.648-.576.936-1.692.936-3.24 0-1.674-.342-2.79-1.008-3.33-.288-.234-.648-.342-1.098-.342-.504 0-.9.126-1.206.414-.63.576-.9 1.656-.9 3.258zm-1.944 0c0-2.178.558-3.78 1.692-4.662.63-.45 1.404-.702 2.358-.702.828 0 1.548.18 2.124.576 1.26.828 1.926 2.502 1.926 4.788 0 2.286-.648 3.924-1.872 4.752-.594.396-1.314.594-2.178.594-.918 0-1.692-.234-2.304-.684-1.17-.846-1.746-2.448-1.746-4.662zm12.762-10.188v6.66h2.556v1.71h-2.556v7.956h-1.962V21.736h1.962zm10.548 3.816v-1.8h-5.904v-1.728h7.83v3.294c0 6.21-2.304 10.35-7.938 11.79v-1.854c4.14-1.206 6.012-4.608 6.012-9.702zm7.128-3.816v16.326h-1.962V21.736h1.962z"/>
    </g>
</svg>
