<svg xmlns="http://www.w3.org/2000/svg" width="180" height="60" viewBox="0 0 180 60">
    <g fill="none" fill-rule="evenodd">
        <path fill="#FFF" stroke="#222" stroke-width="2" d="M179 59V10.414L169.586 1H1v48.586L10.414 59H179z"/>
        <path fill="#222" fill-rule="nonzero" d="M20.097 23.752v-1.728h6.588v1.728h-2.322v5.562c0 3.708.954 5.058 2.52 5.85v1.8c-1.692-.594-2.862-1.728-3.492-3.024-.594 1.296-1.764 2.43-3.456 3.006v-1.782c1.53-.792 2.52-2.124 2.52-5.85v-5.562h-2.358zm5.67 6.048v-1.728h2.412v-6.228h1.908v16.02h-1.908V29.8h-2.412zm7.722 8.262h-1.908V21.736h1.908v16.326zm17.478-15.084v1.656h-13.59v-1.656h5.778V21.16h1.998v1.818h5.814zM39.735 28.81c0 .432.27.756.756.99.774.378 2.106.522 3.672.522 1.404 0 2.682-.108 3.492-.432.594-.234.954-.594.954-1.08 0-.45-.288-.774-.774-1.008-.81-.378-2.16-.522-3.672-.522s-2.808.162-3.618.522c-.522.234-.81.558-.81 1.008zm-1.962 0c0-1.098.612-1.872 1.674-2.376 1.152-.558 2.808-.81 4.716-.81 1.89 0 3.564.234 4.716.792 1.044.504 1.674 1.296 1.674 2.394s-.648 1.89-1.728 2.394c-1.152.54-2.79.792-4.662.792-1.926 0-3.6-.252-4.752-.828-1.044-.522-1.638-1.296-1.638-2.358zm-.846 6.012V33.13h14.49v1.692h-3.114v3.402h-1.926v-3.402h-4.338v3.402h-1.926v-3.402h-3.186zm17.712-11.196v-1.692h8.424v1.692h-3.24v.612c0 2.772 1.512 4.086 3.546 4.536v1.728c-1.962-.342-3.636-1.368-4.482-2.754-.846 1.404-2.556 2.646-4.536 2.97v-1.746c2.07-.45 3.528-1.908 3.528-4.734v-.612h-3.24zm13.194 7.218h-1.962v-3.942h-3.366v-1.674h3.366v-3.492h1.962v9.108zm-12.204 7.38v-6.336h12.204v6.336H55.629zm10.242-4.662h-8.28v3.006h8.28v-3.006zm16.596-3.978h2.952v1.71h-5.67v4.356h6.228v1.692h-14.49V35.65h6.318v-4.356h-5.76v-1.71h2.412v-5.832h-2.124v-1.728h12.798v1.728h-2.142v2.592c0 1.188-.162 2.466-.522 3.24zm-6.03-5.832v5.832h4.14c.342-.774.45-1.98.45-3.042v-2.79h-4.59zm18-.126v-1.692h8.424v1.692h-3.24v1.458c0 2.79 1.512 4.068 3.546 4.536v1.728c-1.962-.342-3.636-1.368-4.482-2.754-.846 1.404-2.556 2.646-4.536 2.952v-1.728c2.07-.45 3.528-1.908 3.528-4.734v-1.458h-3.24zm13.194 9.54h-1.962v-5.94h-3.366v-1.674h3.366v-3.816h1.962v11.43zm.288 4.968H95.427V32.59h1.962v3.852h10.53v1.692zm3.816-12.69v-1.692h2.358v-2.484h1.908v2.484h2.322v1.692h-2.322v3.87c0 3.708.954 5.058 2.52 5.85v1.8c-1.692-.594-2.862-1.728-3.492-3.024-.594 1.296-1.764 2.43-3.456 3.006v-1.782c1.53-.792 2.52-2.124 2.52-5.85v-3.87h-2.358zm5.67 4.932v-1.71h2.412v-6.822h1.908v16.02h-1.908v-7.488h-2.412zm7.722 7.686h-1.908V21.736h1.908v16.326zm6.246-12.798h8.874v-3.24h1.962v9.882h-5.382v3.744h6.228v1.692h-14.49V35.65h6.318v-3.744h-5.472v-9.882h1.962v3.24zm8.874 4.932v-3.222h-8.874v3.222h8.874zm12.06-4.644v-1.8h-5.904v-1.728h7.83v3.294c0 6.21-2.304 10.35-7.938 11.79v-1.854c4.14-1.206 6.012-4.608 6.012-9.702zm7.128-3.816v16.326h-1.962V21.736h1.962z"/>
    </g>
</svg>
