<svg xmlns="http://www.w3.org/2000/svg" width="144" height="60" viewBox="0 0 144 60">
    <defs>
        <filter id="a" width="118.4%" height="148.1%" x="-9.2%" y="-24%" filterUnits="objectBoundingBox">
            <feMorphology in="SourceAlpha" operator="dilate" radius=".5" result="shadowSpreadOuter1"/>
            <feOffset dy="2" in="shadowSpreadOuter1" result="shadowOffsetOuter1"/>
            <feMorphology in="SourceAlpha" radius="1" result="shadowInner"/>
            <feOffset dy="2" in="shadowInner" result="shadowInner"/>
            <feComposite in="shadowOffsetOuter1" in2="shadowInner" operator="out" result="shadowOffsetOuter1"/>
            <feGaussianBlur in="shadowOffsetOuter1" result="shadowBlurOuter1" stdDeviation="2"/>
            <feColorMatrix in="shadowBlurOuter1" result="shadowMatrixOuter1" values="0 0 0 0 0 0 0 0 0 0 0 0 0 0 0 0 0 0 0.5 0"/>
            <feMerge>
                <feMergeNode in="shadowMatrixOuter1"/>
                <feMergeNode in="SourceGraphic"/>
            </feMerge>
        </filter>
    </defs>
    <g fill="none" fill-rule="evenodd" filter="url(#a)" transform="translate(4 2)">
        <path fill="#222" d="M136 52H10L0 42V0h126l10 10v42z"/>
        <path fill="#FFF" fill-rule="nonzero" d="M37.325 19.612v6.6H26.66v-6.6h10.665zm-9.03 5.19h7.395v-3.765h-7.395v3.765zm-2.34 4.815v-1.44H38.03v1.44h-5.25v3.66h-1.62v-3.66h-5.205zm16.74-4.905v2.22h9.195v1.41h-2.145v2.7h2.685v1.41H40.355v-1.41h2.775v-2.7h-2.07v-5.04h9.03v-2.175h-9.03v-1.44h10.665v5.025h-9.03zm5.415 3.63h-3.36v2.7h3.36v-2.7zm7.02-5.805v-1.41h1.965v-2.07h1.59v2.07h1.935v1.41h-1.935v3.225c0 3.09.795 4.215 2.1 4.875v1.5c-1.41-.495-2.385-1.44-2.91-2.52-.495 1.08-1.47 2.025-2.88 2.505v-1.485c1.275-.66 2.1-1.77 2.1-4.875v-3.225H55.13zm4.725 4.11v-1.425h2.01v-5.685h1.59v13.35h-1.59v-6.24h-2.01zm6.435 6.405H64.7V19.447h1.59v13.605zm10.485-11.355h-7.74v-1.335h3.105v-1.305h1.62v1.305h3.015v1.335zm-5.76 3.225c0 .36.18.645.465.855.345.255.84.39 1.44.39.615 0 1.14-.15 1.5-.42.255-.21.39-.48.39-.825s-.15-.645-.435-.855c-.345-.27-.87-.39-1.455-.39-.57 0-1.095.135-1.44.39-.285.21-.465.51-.465.855zm-1.575 0c0-.795.36-1.425.975-1.86.63-.45 1.515-.675 2.505-.675 1.005 0 1.875.24 2.49.675.615.435.975 1.08.975 1.86 0 .825-.36 1.44-1.005 1.875-.615.42-1.485.645-2.46.645-1.02 0-1.92-.24-2.55-.705-.585-.435-.93-1.035-.93-1.815zm11.07 2.715h-1.635v-2.685h-2.13v-1.41h2.13v-4.095h1.635v8.19zm-10.17 5.55v-4.755h10.17v4.755H70.34zm8.535-3.33h-6.9v1.95h6.9v-1.95zm7.53-8.85v-1.95h1.635v1.95h3.075v1.41H83.36v-1.41h3.045zm-.87 6.93c0 1.29.21 2.205.72 2.685.27.24.615.375 1.035.375.405 0 .72-.135.975-.36.54-.48.78-1.41.78-2.7 0-1.395-.285-2.325-.84-2.775-.24-.195-.54-.285-.915-.285-.42 0-.75.105-1.005.345-.525.48-.75 1.38-.75 2.715zm-1.62 0c0-1.815.465-3.15 1.41-3.885.525-.375 1.17-.585 1.965-.585.69 0 1.29.15 1.77.48 1.05.69 1.605 2.085 1.605 3.99 0 1.905-.54 3.27-1.56 3.96-.495.33-1.095.495-1.815.495-.765 0-1.41-.195-1.92-.57-.975-.705-1.455-2.04-1.455-3.885zm10.635-8.49v5.55h2.13v1.425h-2.13v6.63h-1.635V19.447h1.635zm8.79 3.18v-1.5h-4.92v-1.44h6.525v2.745c0 5.175-1.92 8.625-6.615 9.825v-1.545c3.45-1.005 5.01-3.84 5.01-8.085zm5.94-3.18v13.605h-1.635V19.447h1.635z"/>
    </g>
</svg>
