<svg xmlns="http://www.w3.org/2000/svg" width="32" height="40" viewBox="0 0 32 40">
    <path fill="#B1BECB" fill-rule="nonzero" d="M30.448 13.542h-4.964c.12-.469.207-.947.293-1.42.135-.75.263-1.46.517-2.109a2.55 2.55 0 0 0 .145-1.283l1.808-1.946a2.486 2.486 0 0 0 3.103-.579 2.485 2.485 0 0 0-.249-3.415c-.422-.38-.968-.6-1.531-.629a2.448 2.448 0 0 0-.994-1.686 2.484 2.484 0 0 0-3.213.25 2.45 2.45 0 0 0-.278 3.138L23.31 5.775a2.547 2.547 0 0 0-1.33.241c-.575.278-1.215.448-1.875.611a.587.587 0 1 0 .283 1.14c.723-.18 1.428-.367 2.105-.695a1.43 1.43 0 0 1 1.58.253l.747.692c.436.403.588 1.035.379 1.57-.295.755-.44 1.554-.579 2.327-.102.566-.202 1.116-.356 1.629h-8.15a4.416 4.416 0 0 1 .712-3.999 3.637 3.637 0 0 1 1.147-.977.587.587 0 1 0-.57-1.028 4.797 4.797 0 0 0-1.509 1.288 5.564 5.564 0 0 0-.915 1.766 6.338 6.338 0 0 0-11.557 2.95H1.552c-.855 0-1.552.695-1.552 1.549v2.056c0 .855.697 1.55 1.552 1.55h.317l2.475 17.444-.002.025v2.544c0 .711.58 1.289 1.292 1.289h20.733c.712 0 1.29-.578 1.29-1.289v-2.544-.025l2.474-17.444h.317c.856 0 1.552-.695 1.552-1.55v-2.056c0-.855-.696-1.55-1.552-1.55zM24.87 6.464c-.11-.1-.226-.19-.348-.27l1.509-1.623c.34-.366.369-.917.069-1.31-.41-.536-.37-1.24.097-1.71a1.3 1.3 0 0 1 1.68-.131c.344.252.538.64.533 1.06a.846.846 0 0 0 .27.629c.177.164.42.248.662.228.36-.03.705.086.972.326.513.46.572 1.263.131 1.79a1.303 1.303 0 0 1-1.686.27 1.024 1.024 0 0 0-1.293.173L25.95 7.53a2.62 2.62 0 0 0-.332-.374l-.747-.692zM9.728 8.98a5.163 5.163 0 0 1 5.126 4.562H4.602A5.164 5.164 0 0 1 9.728 8.98zm8.475 9.718l-.164 4.34A7.61 7.61 0 0 0 16 22.763c-.707 0-1.395.095-2.039.275l-.163-4.34h4.405zm-5.402 4.78c-.3.148-.583.317-.845.507-1.145.829-1.775 1.949-1.775 3.153 0 .235.025.47.074.7a.589.589 0 0 0 1.15-.242 2.195 2.195 0 0 1-.047-.458c0-1.765 2.082-3.2 4.642-3.2 2.56 0 4.643 1.435 4.643 3.2 0 1.766-2.083 3.201-4.643 3.201-1.23 0-2.39-.333-3.27-.938a.589.589 0 0 0-.818.15.586.586 0 0 0 .15.816c.314.217.656.403 1.02.56l.175 4.653H9.798L8.415 18.698h4.205l.18 4.78zm4.926 7.841l-.16 4.26h-3.133l-.16-4.26a7.664 7.664 0 0 0 1.726.195c.594 0 1.174-.067 1.727-.195zM3.057 18.698h4.178l1.382 16.881H5.452L3.057 18.698zM26.482 38.71a.115.115 0 0 1-.115.115H5.634a.115.115 0 0 1-.115-.115v-1.957H26.48v1.957zm.066-3.132h-3.165l1.383-16.881h4.177l-2.395 16.881zm-4.345 0h-3.46l.176-4.65a5.991 5.991 0 0 0 1.125-.637c1.145-.828 1.775-1.949 1.775-3.154 0-1.204-.63-2.324-1.775-3.153a5.844 5.844 0 0 0-.844-.507l.18-4.78h4.206L22.203 35.58zm8.62-18.43a.376.376 0 0 1-.375.375H1.552a.376.376 0 0 1-.375-.376v-2.056c0-.207.168-.375.375-.375h28.896c.207 0 .376.168.376.375v2.056z"/>
</svg>
