<svg xmlns="http://www.w3.org/2000/svg" width="24" height="34" viewBox="0 0 24 34">
    <path fill="#B1BECB" fill-rule="nonzero" d="M12.5 25A5.506 5.506 0 0 1 7 19.5a5.506 5.506 0 0 1 7.449-5.145.496.496 0 0 1-.352.928A4.513 4.513 0 0 0 7.991 19.5a4.513 4.513 0 0 0 4.509 4.508 4.513 4.513 0 0 0 4.508-4.508 4.493 4.493 0 0 0-1.206-3.07.496.496 0 1 1 .726-.675A5.48 5.48 0 0 1 18 19.5c0 3.033-2.467 5.5-5.5 5.5zM22.606 5.672c.769 0 1.394.626 1.394 1.396v2.047c0 .657-.455 1.207-1.066 1.355l-.813 18.864a2.587 2.587 0 0 1-2.47 2.48l-.926 1.495c-.264.426-.751.691-1.271.691H6.546c-.52 0-1.007-.265-1.27-.69l-.927-1.497a2.587 2.587 0 0 1-2.47-2.48L1.066 10.47A1.397 1.397 0 0 1 0 9.115V7.068c0-.77.626-1.396 1.394-1.396h.63l1.264-2.345c.316-.585.91-.949 1.551-.949h.795V1.251c0-.69.56-1.251 1.25-1.251h1.968c.689 0 1.25.561 1.25 1.251v1.127h4.56a.497.497 0 0 1 0 .996H4.838a.779.779 0 0 0-.675.425l-1.01 1.873h17.692L19.836 3.8a.78.78 0 0 0-.675-.425h-2.17a.497.497 0 0 1 0-.996h2.17a1.77 1.77 0 0 1 1.55.949l1.265 2.345h.63zM6.629 1.252v1.126h2.478V1.251a.256.256 0 0 0-.255-.255H6.884a.256.256 0 0 0-.255.255zm11.25 31.532l.6-.968H5.52l.6.968c.084.136.247.22.425.22h10.908a.497.497 0 0 0 .425-.22zm3.248-3.493l.81-18.78H2.063l.81 18.78c.036.857.737 1.53 1.595 1.53h15.063c.857 0 1.558-.673 1.595-1.53zm1.878-20.176V7.068a.4.4 0 0 0-.4-.4H1.396a.4.4 0 0 0-.4.4v2.047c0 .22.18.4.4.4h21.21a.4.4 0 0 0 .4-.4z"/>
</svg>
