<svg xmlns="http://www.w3.org/2000/svg" width="31" height="32" viewBox="0 0 31 32">
    <path fill="#B1BECB" fill-rule="nonzero" d="M29.357 24.636c.084-.186.13-.392.13-.609v-1.074c0-.365-.131-.7-.35-.96a1.23 1.23 0 0 0 .35-.86v-1.016a1.181 1.181 0 0 0 .304-1.483l-.289-.537a1.978 1.978 0 0 0 1.2-1.713 1.956 1.956 0 0 0-.55-1.465 1.992 1.992 0 0 0-.828-.517c.104-.204.164-.434.164-.678V12.65c0-.171-.03-.336-.083-.49h.03c.862 0 1.564-.639 1.565-1.425a7.17 7.17 0 0 0-.552-2.81c-1.203-2.853-3.657-5.032-7.295-6.476-4.864-1.932-10.442-1.932-15.306 0-2.356.935-4.237 2.198-5.59 3.752a.466.466 0 0 0 .05.66.477.477 0 0 0 .667-.049c1.253-1.44 3.01-2.615 5.225-3.494 4.64-1.843 9.962-1.843 14.602 0 3.393 1.347 5.673 3.355 6.775 5.968.318.755.48 1.578.478 2.448 0 .266-.283.49-.619.49H1.565c-.336 0-.62-.224-.62-.49 0-.87.16-1.693.48-2.449.112-.267.24-.532.377-.787a.466.466 0 0 0-.193-.634.475.475 0 0 0-.64.192 9.951 9.951 0 0 0-.417.869A7.17 7.17 0 0 0 0 10.735c0 .786.703 1.425 1.565 1.425h.03a1.477 1.477 0 0 0-.083.49v1.074c0 .247.061.48.168.686-.776.255-1.343.947-1.383 1.783-.026.548.17 1.069.552 1.465.186.193.405.344.644.448l-.284.528a1.178 1.178 0 0 0 .303 1.483v1.017c0 .333.134.636.351.859-.219.26-.35.595-.35.96v1.074c0 .217.046.423.13.609-.84.18-1.47.922-1.47 1.806v.875C.173 29.9 2.293 32 4.9 32H26.1c2.607 0 4.728-2.1 4.728-4.683v-.875c0-.884-.63-1.625-1.47-1.806zM2.458 12.65c0-.209.115-.391.285-.49h25.514c.17.099.285.281.285.49v1.074a.569.569 0 0 1-.571.566H3.029a.569.569 0 0 1-.571-.566V12.65zm-.925 4.361a1.033 1.033 0 0 1-.291-.774c.026-.549.52-.996 1.1-.996h26.36a1.054 1.054 0 0 1 1.056 1.099c-.026.549-.52.996-1.1.996H14.85a.983.983 0 0 0-.986.977v3.924c0 .599-.492 1.086-1.097 1.086a1.093 1.093 0 0 1-1.097-1.086v-3.924a.983.983 0 0 0-.986-.977H9.178a.983.983 0 0 0-.986.977v.794c0 .3-.12.579-.34.786a1.097 1.097 0 0 1-.81.299c-.576-.027-1.044-.534-1.044-1.13v-.75a.983.983 0 0 0-.986-.976H2.298c-.292 0-.564-.116-.765-.325zm23.312 4.058c.43.196.882.287 1.425.287 1.035 0 1.574-.34 2.049-.638.076-.049.15-.095.223-.138v.554a.305.305 0 0 1-.306.303H14.808v-1.13c.193-.052.416-.082.691-.082.76 0 1.122.228 1.541.493.475.299 1.014.638 2.05.638 1.034 0 1.573-.34 2.048-.638.42-.265.781-.493 1.541-.493.104 0 .205.005.299.013.26.024.49-.165.514-.423a.47.47 0 0 0-.427-.51 4.26 4.26 0 0 0-.386-.016c-1.035 0-1.573.339-2.049.638-.419.264-.78.492-1.54.492s-1.123-.228-1.542-.492c-.475-.299-1.014-.638-2.049-.638-.26 0-.487.021-.69.058v-1.034a.04.04 0 0 1 .04-.04h2.369c-.004.004-.006.01-.01.015h11.325l.424.786c.036.068.04.147.01.219a.24.24 0 0 1-.153.139c-.418.127-.729.323-1.003.495-.42.264-.781.492-1.541.492-.407 0-.725-.062-1.03-.2a.475.475 0 0 0-.627.23.467.467 0 0 0 .232.62zM4.606 18.272h.406a.04.04 0 0 1 .04.04v.75c0 .475.158.912.423 1.261-.205.06-.444.096-.745.096-.76 0-1.122-.228-1.542-.492-.273-.172-.584-.368-1.002-.495a.24.24 0 0 1-.153-.14.252.252 0 0 1 .01-.218l.424-.787h2.15l-.01-.015zm5.254 2.446c.25.156.517.324.863.448v.271H2.764a.305.305 0 0 1-.306-.303v-.554l.223.138c.475.299 1.014.638 2.049.638.73 0 1.213-.17 1.602-.374.207.083.43.134.665.145a2.037 2.037 0 0 0 1.778-.869c.469.072.76.255 1.085.46zm-.74-1.35c.011-.085.018-.173.018-.261v-.794a.04.04 0 0 1 .04-.04h1.504a.04.04 0 0 1 .041.04v1.827a6.065 6.065 0 0 1-.355-.213c-.334-.21-.7-.44-1.248-.558zm-6.662 3.585c0-.312.256-.566.571-.566h7.7a2.037 2.037 0 0 0 2.037 1.873 2.037 2.037 0 0 0 2.036-1.873h13.169c.315 0 .571.254.571.566v1.074a.569.569 0 0 1-.571.566H3.029a.569.569 0 0 1-.571-.566v-1.074zm27.423 4.364c0 2.066-1.697 3.746-3.782 3.746H4.9c-2.086 0-3.783-1.68-3.783-3.746v-.875c0-.503.414-.912.921-.912H28.96c.508 0 .921.41.921.912v.875z"/>
</svg>
