<?xml version="1.0" encoding="UTF-8"?>
<svg width="199px" height="60px" viewBox="0 0 199 60" version="1.1" xmlns="http://www.w3.org/2000/svg" xmlns:xlink="http://www.w3.org/1999/xlink">
    <!-- Generator: Sketch 61 (89581) - https://sketch.com -->
    <title>Group</title>
    <desc>Created with Sketch.</desc>
    <g id="Page-1" stroke="none" stroke-width="1" fill="none" fill-rule="evenodd">
        <g id="eatple_desktop" transform="translate(-240.000000, -604.000000)">
            <g id="01-Hero" transform="translate(239.000000, 0.000000)">
                <g id="BtnViewVideo" transform="translate(1.000000, 604.000000)">
                    <g id="Group">
                        <path d="M198,59 L198,10.4142136 L188.585786,1 L1,1 L1,49.5857864 L10.4142136,59 L198,59 Z" id="Combined-Shape" stroke="#222222" stroke-width="2" fill="#FFFFFF"></path>
                        <g id="icon/IcArrowRight" transform="translate(173.000000, 30.500000) scale(1, -1) rotate(-90.000000) translate(-173.000000, -30.500000) translate(165.000000, 22.500000)">
                            <rect id="boundingbox" x="0" y="0" width="16" height="16"></rect>
                            <polygon id="Path" fill="#222222" points="8 9.46666667 3.2 4.66666667 2 5.86666667 8 11.8666667 14 5.86666667 12.8 4.66666667"></polygon>
                        </g>
                        <path d="M25.886,30.646 C27.074,30.646 28.046,30.304 28.748,29.71 C29.684,28.936 30.17,27.712 30.17,26.128 C30.17,24.544 29.684,23.338 28.748,22.564 C28.046,21.952 27.074,21.628 25.886,21.628 C24.716,21.628 23.726,21.952 23.024,22.564 C22.106,23.338 21.602,24.544 21.602,26.128 C21.602,27.712 22.106,28.936 23.024,29.71 C23.726,30.304 24.716,30.646 25.886,30.646 Z M35.012,31.96 L35.012,21.736 L33.05,21.736 L33.05,31.96 L35.012,31.96 Z M25.886,28.972 C25.238,28.972 24.716,28.756 24.302,28.378 C23.798,27.91 23.51,27.154 23.51,26.128 C23.51,25.138 23.798,24.364 24.302,23.878 C24.716,23.518 25.238,23.32 25.886,23.32 C26.534,23.32 27.074,23.518 27.47,23.878 C27.992,24.364 28.262,25.138 28.262,26.128 C28.262,27.154 27.992,27.91 27.47,28.378 C27.074,28.756 26.534,28.972 25.886,28.972 Z M35.3,38.242 L35.3,36.568 C31.916,36.136 29.648,34.606 29.648,32.446 L29.648,32.446 L29.648,31.78 L27.704,31.78 L27.704,32.446 C27.704,34.606 25.4,36.136 22.034,36.568 L22.034,36.568 L22.034,38.242 C25.094,37.972 27.416,36.838 28.658,35.416 C29.936,36.838 32.222,37.972 35.3,38.242 L35.3,38.242 Z M52.49,26.884 L52.49,25.3 L49.844,25.3 C50.042,25.03 50.096,24.652 50.096,24.31 L50.096,24.31 L50.096,23.536 L52.202,23.536 L52.202,21.934 L39.638,21.934 L39.638,23.536 L41.744,23.536 L41.744,25.3 L39.332,25.3 L39.332,26.884 L52.49,26.884 Z M47.954,25.3 L43.688,25.3 L43.688,23.536 L48.134,23.536 L48.134,24.346 C48.134,24.67 48.098,25.048 47.954,25.3 L47.954,25.3 Z M53.264,29.764 L53.264,28.144 L38.558,28.144 L38.558,29.764 L53.264,29.764 Z M52.562,38.224 L52.562,36.64 L41.582,36.64 L41.582,35.452 L52.202,35.452 L52.202,31.096 L39.638,31.096 L39.638,32.68 L50.24,32.68 L50.24,33.886 L39.638,33.886 L39.638,38.224 L52.562,38.224 Z M65.306,37.216 C67.952,37.216 69.842,35.596 69.842,33.04 C69.842,31.15 68.834,29.926 67.286,29.476 C68.6,29.062 69.428,27.82 69.428,26.362 C69.428,24.238 67.916,22.636 65.306,22.636 C62.696,22.636 61.166,24.238 61.166,26.362 L61.166,26.668 L63.2,26.668 L63.2,26.524 C63.2,25.228 64.028,24.4 65.306,24.4 C66.53,24.4 67.412,25.228 67.412,26.524 C67.412,27.766 66.602,28.63 65.342,28.63 L63.884,28.63 L63.884,30.358 L65.342,30.358 C66.782,30.358 67.808,31.312 67.808,32.914 C67.808,34.552 66.728,35.452 65.306,35.452 C63.848,35.452 62.786,34.534 62.786,32.878 L62.786,32.77 L60.734,32.77 L60.734,32.986 C60.734,35.596 62.66,37.216 65.306,37.216 Z M85.808,29.008 L85.808,21.934 L83.846,21.934 L83.846,23.824 L75.188,23.824 L75.188,21.934 L73.244,21.934 L73.244,29.008 L85.808,29.008 Z M83.846,27.37 L75.188,27.37 L75.188,25.48 L83.846,25.48 L83.846,27.37 Z M80.678,34.912 L80.678,32.158 L86.87,32.158 L86.87,30.502 L72.164,30.502 L72.164,32.158 L78.734,32.158 L78.734,34.912 L80.678,34.912 Z M86.096,38.134 L86.096,36.442 L75.188,36.442 L75.188,33.67 L73.244,33.67 L73.244,38.134 L86.096,38.134 Z M99.092,29.476 C100.208,29.476 101.18,29.17 101.936,28.612 C102.818,27.946 103.376,26.884 103.376,25.552 C103.376,24.22 102.818,23.194 101.936,22.492 C101.18,21.934 100.208,21.628 99.092,21.628 C97.994,21.628 97.022,21.934 96.284,22.492 C95.384,23.194 94.826,24.22 94.826,25.552 C94.826,26.884 95.384,27.946 96.284,28.612 C97.022,29.17 97.994,29.476 99.092,29.476 Z M107.984,29.674 L107.984,26.524 L110.36,26.524 L110.36,24.796 L107.984,24.796 L107.984,21.736 L106.022,21.736 L106.022,29.674 L107.984,29.674 Z M99.092,27.874 C98.444,27.874 97.886,27.658 97.472,27.316 C97.022,26.902 96.734,26.308 96.734,25.552 C96.734,24.814 97.022,24.22 97.472,23.824 C97.886,23.464 98.444,23.266 99.092,23.266 C99.758,23.266 100.334,23.464 100.73,23.824 C101.18,24.22 101.468,24.814 101.468,25.552 C101.468,26.308 101.18,26.902 100.73,27.316 C100.334,27.658 99.758,27.874 99.092,27.874 Z M108.182,38.224 L108.182,36.64 L97.886,36.64 L97.886,35.218 L107.984,35.218 L107.984,30.646 L95.942,30.646 L95.942,32.212 L106.022,32.212 L106.022,33.67 L95.942,33.67 L95.942,38.224 L108.182,38.224 Z M116.534,37.144 C117.74,37.144 118.748,36.73 119.414,35.902 C120.458,34.624 120.746,32.41 120.746,29.458 C120.746,26.506 120.458,24.292 119.414,23.014 C118.748,22.186 117.74,21.736 116.534,21.736 C115.31,21.736 114.32,22.186 113.636,23.014 C112.61,24.292 112.322,26.506 112.322,29.458 C112.322,32.41 112.61,34.624 113.636,35.902 C114.32,36.73 115.31,37.144 116.534,37.144 Z M125.264,38.062 L125.264,30.106 L127.82,30.106 L127.82,28.396 L125.264,28.396 L125.264,21.736 L123.302,21.736 L123.302,38.062 L125.264,38.062 Z M116.534,35.47 C115.94,35.47 115.436,35.236 115.112,34.822 C114.428,33.94 114.266,32.05 114.266,29.458 C114.266,26.866 114.428,24.976 115.112,24.112 C115.436,23.662 115.94,23.428 116.534,23.428 C117.11,23.428 117.614,23.662 117.956,24.112 C118.604,24.976 118.802,26.866 118.802,29.458 C118.802,32.05 118.604,33.94 117.956,34.822 C117.614,35.236 117.11,35.47 116.534,35.47 Z M143.84,37.342 L143.84,35.65 L137.612,35.65 L137.612,31.906 L142.994,31.906 L142.994,22.024 L141.032,22.024 L141.032,25.264 L132.158,25.264 L132.158,22.024 L130.196,22.024 L130.196,31.906 L135.668,31.906 L135.668,35.65 L129.35,35.65 L129.35,37.342 L143.84,37.342 Z M141.032,30.196 L132.158,30.196 L132.158,26.974 L141.032,26.974 L141.032,30.196 Z M160.22,38.062 L160.22,21.736 L158.258,21.736 L158.258,38.062 L160.22,38.062 Z M147.08,37.108 C152.714,35.668 155.018,31.528 155.018,25.318 L155.018,25.318 L155.018,22.024 L147.188,22.024 L147.188,23.752 L153.092,23.752 L153.092,25.552 C153.092,30.646 151.22,34.048 147.08,35.254 L147.08,35.254 L147.08,37.108 Z" id="잇플3분알아보기" fill="#222222" fill-rule="nonzero"></path>
                    </g>
                </g>
            </g>
        </g>
    </g>
</svg>