<?xml version="1.0" encoding="UTF-8"?>
<svg width="90px" height="12px" viewBox="0 0 90 12" version="1.1" xmlns="http://www.w3.org/2000/svg" xmlns:xlink="http://www.w3.org/1999/xlink">
    <!-- Generator: Sketch 61 (89581) - https://sketch.com -->
    <title>Group</title>
    <desc>Created with Sketch.</desc>
    <g id="Page-1" stroke="none" stroke-width="1" fill="none" fill-rule="evenodd">
        <g id="eatple_mobile" transform="translate(-17.000000, -264.000000)">
            <g id="01-Hero" transform="translate(0.000000, 100.000000)">
                <g id="BtnViewVideo" transform="translate(17.000000, 164.000000)">
                    <g id="Group" transform="translate(0.032000, 0.560000)">
                        <path d="M8.604,11.076 L8.604,5.688 L10.356,5.688 L10.356,4.848 L8.604,4.848 L8.604,0.336 L7.644,0.336 L7.644,11.076 L8.604,11.076 Z M5.988,10.332 L5.988,9.444 C4.728,8.832 3.468,7.5 3.468,4.752 L3.468,4.752 L3.468,1.368 L5.88,1.368 L5.88,0.528 L0.12,0.528 L0.12,1.368 L2.508,1.368 L2.508,4.752 C2.508,7.5 1.236,8.856 -2.20268248e-13,9.444 L-2.20268248e-13,9.444 L-2.20268248e-13,10.332 C1.356,9.816 2.544,8.616 3,7.32 C3.456,8.616 4.596,9.792 5.988,10.332 L5.988,10.332 Z M20.544,11.076 L20.544,0.336 L19.608,0.336 L19.608,11.076 L20.544,11.076 Z M18.12,10.956 L18.12,0.396 L17.184,0.396 L17.184,4.392 L15.348,4.392 L15.348,5.22 L17.184,5.22 L17.184,10.956 L18.12,10.956 Z M16.068,10.332 L16.068,9.444 C14.952,8.76 14.112,7.62 14.112,5.184 L14.112,5.184 L14.112,0.456 L13.164,0.456 L13.164,5.184 C13.164,7.608 12.336,8.772 11.232,9.432 L11.232,9.432 L11.232,10.32 C12.42,9.744 13.296,8.736 13.644,7.668 C14.016,8.736 14.892,9.744 16.068,10.332 L16.068,10.332 Z M29.208,2.496 L29.208,1.656 L26.544,1.656 L26.544,1.33226763e-14 L25.584,1.33226763e-14 L25.584,1.656 L22.932,1.656 L22.932,2.496 L29.208,2.496 Z M31.908,11.064 L31.908,0.336 L30.936,0.336 L30.936,11.064 L31.908,11.064 Z M26.064,10.524 C26.64,10.524 27.144,10.38 27.552,10.092 C28.296,9.552 28.728,8.532 28.728,7.056 C28.728,5.58 28.296,4.572 27.552,4.032 C27.144,3.732 26.64,3.576 26.064,3.576 C25.488,3.576 24.984,3.732 24.576,4.032 C23.832,4.572 23.388,5.58 23.388,7.056 C23.388,8.532 23.832,9.552 24.576,10.092 C24.984,10.38 25.488,10.524 26.064,10.524 Z M26.064,9.708 C25.692,9.708 25.368,9.6 25.092,9.384 C24.624,8.988 24.336,8.232 24.336,7.056 C24.336,5.892 24.624,5.136 25.092,4.74 C25.368,4.512 25.692,4.416 26.064,4.416 C26.436,4.416 26.748,4.512 27.024,4.74 C27.504,5.136 27.78,5.892 27.78,7.056 C27.78,8.232 27.504,8.988 27.024,9.384 C26.748,9.6 26.436,9.708 26.064,9.708 Z M40.812,5.328 C41.556,5.328 42.216,5.124 42.708,4.74 C43.26,4.296 43.596,3.636 43.596,2.796 C43.596,1.944 43.26,1.296 42.708,0.852 C42.216,0.468 41.556,0.264 40.812,0.264 C40.068,0.264 39.42,0.468 38.928,0.852 C38.376,1.296 38.028,1.944 38.028,2.796 C38.028,3.636 38.376,4.296 38.928,4.74 C39.42,5.124 40.068,5.328 40.812,5.328 Z M46.656,5.52 L46.656,3.288 L48.3,3.288 L48.3,2.436 L46.656,2.436 L46.656,0.336 L45.696,0.336 L45.696,5.52 L46.656,5.52 Z M40.812,4.512 C40.284,4.512 39.84,4.368 39.516,4.08 C39.168,3.78 38.964,3.348 38.964,2.796 C38.964,2.244 39.168,1.812 39.516,1.512 C39.84,1.236 40.284,1.08 40.812,1.08 C41.328,1.08 41.796,1.236 42.108,1.512 C42.444,1.812 42.648,2.244 42.648,2.796 C42.648,3.348 42.444,3.78 42.108,4.08 C41.796,4.368 41.328,4.512 40.812,4.512 Z M46.8,11.196 L46.8,10.416 L39.744,10.416 L39.744,9.156 L46.656,9.156 L46.656,6.324 L38.784,6.324 L38.784,7.116 L45.696,7.116 L45.696,8.364 L38.784,8.364 L38.784,11.196 L46.8,11.196 Z M52.44,10.464 C53.196,10.464 53.808,10.236 54.24,9.732 C54.96,8.904 55.188,7.416 55.188,5.412 C55.188,3.396 54.96,1.908 54.24,1.092 C53.808,0.6 53.196,0.336 52.44,0.336 C51.696,0.336 51.072,0.6 50.652,1.092 C49.92,1.908 49.692,3.396 49.692,5.412 C49.692,7.416 49.92,8.904 50.652,9.732 C51.072,10.236 51.696,10.464 52.44,10.464 Z M58.176,11.076 L58.176,5.688 L59.928,5.688 L59.928,4.848 L58.176,4.848 L58.176,0.336 L57.216,0.336 L57.216,11.076 L58.176,11.076 Z M52.44,9.648 C51.984,9.648 51.612,9.492 51.36,9.18 C50.82,8.544 50.652,7.224 50.652,5.412 C50.652,3.588 50.82,2.28 51.36,1.656 C51.612,1.344 51.984,1.176 52.44,1.176 C52.884,1.176 53.256,1.344 53.532,1.656 C54.06,2.28 54.24,3.588 54.24,5.412 C54.24,7.224 54.06,8.544 53.532,9.18 C53.256,9.492 52.884,9.648 52.44,9.648 Z M70.596,10.596 L70.596,9.756 L66.324,9.756 L66.324,6.96 L70.008,6.96 L70.008,0.528 L69.048,0.528 L69.048,2.784 L62.58,2.784 L62.58,0.528 L61.62,0.528 L61.62,6.96 L65.352,6.96 L65.352,9.756 L61.044,9.756 L61.044,10.596 L70.596,10.596 Z M69.048,6.108 L62.58,6.108 L62.58,3.636 L69.048,3.636 L69.048,6.108 Z M81.48,11.064 L81.48,0.336 L80.508,0.336 L80.508,11.064 L81.48,11.064 Z M72.888,10.404 C76.416,9.468 78,6.768 78,2.7 L78,2.7 L78,0.528 L72.96,0.528 L72.96,1.368 L77.04,1.368 L77.04,2.796 C77.04,6.324 75.684,8.664 72.888,9.504 L72.888,9.504 L72.888,10.404 Z" id="자세히알아보기" fill="#0080FF" fill-rule="nonzero"></path>
                        <g id="icon/IcArrowRight" transform="translate(87.968000, 5.940000) scale(1, -1) rotate(-90.000000) translate(-87.968000, -5.940000) translate(83.968000, 1.940000)">
                            <rect id="boundingbox" x="0" y="0" width="8" height="8"></rect>
                            <polygon id="Path" fill="#0080FF" points="4 4.73333333 1.6 2.33333333 1 2.93333333 4 5.93333333 7 2.93333333 6.4 2.33333333"></polygon>
                        </g>
                    </g>
                </g>
            </g>
        </g>
    </g>
</svg>