<svg xmlns="http://www.w3.org/2000/svg" width="673" height="663" viewBox="0 0 673 663">
    <defs>
        <linearGradient id="a" x1="50%" x2="50%" y1="100%" y2="0%">
            <stop offset="0%" stop-color="gray" stop-opacity=".25"/>
            <stop offset="53.514%" stop-color="gray" stop-opacity=".12"/>
            <stop offset="100%" stop-color="gray" stop-opacity=".1"/>
        </linearGradient>
    </defs>
    <g fill="none" fill-rule="evenodd" transform="matrix(-1 0 0 1 673 0)">
        <ellipse cx="336.5" cy="647.5" fill="#B1BECB" rx="336.5" ry="15.5"/>
        <path fill="#B1BECB" d="M231.474 19.917C251.086 2.442 281.87-1.12 309.888.272c88.01 4.373 167.457 46.86 236.177 94.92 24.878 17.398 49.371 36.147 65.52 60.106 32.873 48.772 23.122 116.337-22.589 156.516-15.552 13.67-34.405 24.15-53.76 33.44-34.414 16.517-71.547 29.777-110.606 33.551-27.854 2.691-56.05.503-83.74-3.252-77.367-10.492-153.307-33.692-216.955-73.385-27.916-17.41-54.229-39.053-65.735-67.216-11.507-28.164-4.143-63.853 24.362-80.523 11.79-6.895 25.885-10.009 39.686-12.933 20.313-4.303 40.952-8.546 59.284-17.296 18.933-9.037 41.353-26.513 37.604-46.516-4.022-21.463-7.25-40.312 12.338-57.767z"/>
        <path fill="#535461" fill-rule="nonzero" d="M145 408h5v111h-5z"/>
        <path fill="#65617D" fill-rule="nonzero" d="M179.986 519.443l-.308 4.98-.43 7.025-.178 2.931-.43 7.034-.186 2.932-.43 7.026-4.905 79.928c-.437 7.138-6.297 12.701-13.378 12.701h-25.483c-7.079 0-12.936-5.564-13.37-12.7l-4.913-79.93-.43-7.025-.178-2.932-.438-7.034-.178-2.931-.43-7.026-.308-4.979a7.054 7.054 0 0 1 1.873-5.235 6.913 6.913 0 0 1 5.06-2.208h52.116c1.916 0 3.745.8 5.057 2.209a7.048 7.048 0 0 1 1.867 5.234z"/>
        <path fill="#9D9CB5" fill-rule="nonzero" d="M181 524l-.434 7h-65.132l-.434-7zM180 534l-.435 7h-64.121l-.444-7zM180 544l-.43 7h-62.14l-.43-7z"/>
        <path fill="#6C63FF" fill-rule="nonzero" d="M106.715 450.894C135.158 471.604 147 504 147 504s-34.272-1.183-62.715-21.894C55.842 461.396 44 429 44 429s34.272 1.183 62.715 21.894z"/>
        <path stroke="#535461" stroke-width="2" d="M44 429s35.573 19.877 46.985 36.332C102.397 481.788 147 504 147 504"/>
        <path fill="#6C63FF" fill-rule="nonzero" d="M126.098 409.677C141.56 420.722 148 438 148 438s-18.634-.63-34.098-11.677C98.44 415.278 92 398 92 398s18.634.63 34.098 11.677z"/>
        <path stroke="#535461" stroke-width="2" d="M92 398s19.34 10.601 25.545 19.377C123.75 426.153 148 438 148 438"/>
        <path fill="#6C63FF" fill-rule="nonzero" d="M170.746 437.14C152.796 457.022 149 483 149 483s25.305-6.257 43.254-26.14C210.204 436.978 214 411 214 411s-25.305 6.257-43.254 26.14z"/>
        <path stroke="#535461" stroke-width="2" d="M214 411s-23.38 20.38-29.323 34.422C178.735 459.464 149 483 149 483"/>
        <path fill="url(#a)" fill-rule="nonzero" d="M433.199 248.2c-1.336-2.595-8.398-18.723-8.398-18.723l-11.833-30.774s-8.397-12.977-8.397-15.387-15.269-12.05-15.269-12.05-12.405-3.708-13.36-4.078c-.954-.371-15.65-5.25-15.65-5.25s-5.786-7.638-6.61-5.644l-.001.005c-.03-.05-.061-.094-.091-.146a19.772 19.772 0 0 1-2.206-7.14c-.032-.223-.059-.457-.087-.689a28.454 28.454 0 0 0 12.43-23.404 28.147 28.147 0 0 0-.243-3.638c.105-.066.214-.124.328-.174.237-.103.177-.188.003-.275.06-.032.12-.065.18-.091.315-.138.104-.242-.202-.366l.019-.01c.43-.187-.114-.311-.551-.51-.024-.128-.046-.257-.071-.385.097-.244.156-.502.175-.764.039.02.074.04.115.059a3.256 3.256 0 0 0-.008-1.45c-.027.096-.06.191-.099.284.056-.88-.37-1.72-1.11-2.194l-.07-.06.81-8.316c11.935-.566 14.029-20.946 11.307-22.078-2.722-1.132 0-3.585 0-8.492 0-4.906-9.004-10.378-9.004-10.378s-3.768 1.887-9.631-7.548-27.43-10.945-28.895-8.492c-1.465 2.454-11.097 5.661-23.66 9.247-12.563 3.585-10.26 18.492-8.166 21.7a18.355 18.355 0 0 1 2.931 8.87c0 1.886 3.979 9.811 3.979 9.811-1.255 2.747 1.938 17.791 2.884 22.067l-.044.395c-.008.013-.018.023-.026.037-.045.069-.086.14-.122.215-.203.443-.27.936-.193 1.418a2.972 2.972 0 0 0 .212 1.55 28.321 28.321 0 0 0 9.991 21.1l.044.78c.175 3.493.275 7.624.091 11.576-.009.202-.024.4-.035.602a4.51 4.51 0 0 0-3.194 2.527c-1.183 2.284-8.054 5.807-8.054 5.807s-12.024.556-13.169 2.78c-1.145 2.225-18.513 9.64-18.513 9.64s-9.16 5.377-7.825 11.494c.698 3.197-1.261 8.163-3.292 12.179a57.45 57.45 0 0 0-13.175-3.297l9.73 9.342c-.204.32-.324.5-.324.5l-5.535 19.651s-1.908 6.86-3.817 8.528c-1.908 1.668 1.718 16.87 1.718 16.87s-2.1 10.752-3.817 13.533c-1.718 2.78 2.672 9.64 2.672 9.64l8.779 20.022 23.284 5.932s1.552.33 4.059.868c-.079.479-.16.956-.242 1.43-1.122 6.378-2.596 12.243-4.39 13.83-4.39 3.893-4.198 21.32-4.198 21.32l.19 24.656s1.527 30.403.764 31.515c-.482.702.485 1.847 3.036 2.876-.073.458-.144.922-.212 1.396-.717 5.042-1.038 10.796.611 13.34a10.164 10.164 0 0 1 1.145 4.45c0 2.41 3.627 7.415 3.627 7.415s-2.863 20.577 1.908 27.622c4.771 7.045 8.78 19.836 6.49 22.802 0 0-4.009 8.713-2.1 12.606 1.908 3.894 0 6.118-2.481 7.045-2.481.927-2.268 8.528-2.268 8.528l4.558 36.15s2.481 7.415.382 10.01c-2.1 2.596-2.1 15.573 1.145 20.022 3.244 4.45-4.58 12.606-4.58 12.606s-4.772 6.86 2.862 9.084c0 0 1.527.371-1.336 3.337s-3.435 6.674-1.527 7.972c.396.238.81.445 1.238.617-.07.44-.147.895-.238 1.378-.733 3.87-2.114 8.913-4.626 11.353a80.907 80.907 0 0 0-12.497 16.714c-2.619 4.983-3.764 9.647-.863 11.835 6.871 5.19 15.65 6.86 20.803 4.82 5.153-2.04 12.406-8.342 12.406-8.342l1.717-7.23s-1.145-4.45 4.58-6.118c5.727-1.669 11.07-7.6 11.07-7.6v-9.611a40.561 40.561 0 0 0 4.008-2.625s2.672-9.455 0-12.606c-2.672-3.152-3.626-4.264-.19-6.304 3.435-2.039 3.9-6.488 1.381-10.381-2.527-3.893-6.534-9.64-3.1-17.797 3.436-8.157 4.696-33.184 4.696-33.184s-1.603-17.055 0-20.948c1.603-3.894-1.832-11.68-1.832-11.68s1.145-9.64 3.244-14.09c2.1-4.448 3.817-27.992 3.817-27.992s3.817-10.011 3.817-16.5c0-6.488-5.916-22.06 2.863-26.139 0 0 3.817 3.337 2.29 16.685 0 0 4.39 15.572 4.39 20.392s3.244 22.246 3.244 22.246.382 5.562 1.718 7.601c1.336 2.04 0 7.601 0 7.601s4.962 4.635 3.626 7.6c-1.336 2.967.23 9.656.23 9.656l-1.184 41.511s-3.435 17.797 4.58 28.55c0 0-2.862 15.757-4.58 16.87-1.718 1.112 6.298 10.752 6.298 10.752s-2.221 6.245 2.29 6.551v10.319a22.019 22.019 0 0 0 6.299 7.045c4.199 2.966 2.48 13.162 2.48 13.162s5.345 12.977 19.468 10.196c14.123-2.78 16.032-4.078 15.268-8.713-.275-1.69-.885-4.709-1.763-8.135-1.52-5.954-3.848-13.14-6.634-16.684-4.39-5.584-8.016-17.263-8.016-17.263s-1.718-3.894 0-5.191c1.717-1.298.954-3.708.954-3.708s1.672-4.82.168-7.786c-1.504-2.966 2.886-9.084 2.886-9.084l-1.336-28.55 1.336-41.525s-5.917-6.86-3.436-10.938c2.481-4.079-2.862-9.826-2.862-9.826s-.573-.185.954-4.82a11.592 11.592 0 0 0-.382-8.342s-3.244-11.494 2.481-20.207c0 0 2.481-11.494 3.245-17.426.526-4.123 3.824-19.525 5.786-28.535l.32-1.462c2.826.155 4.963.335 4.963.335s-4.39-30.588 0-36.891c4.39-6.303-3.435-54.504-3.435-54.504s-1.87-8.423-3.023-17.018c-.066-.49-.126-.979-.187-1.468 3.544-.285 7.1-.364 10.653-.237 9.161.556 18.131-2.967 18.322-6.489.19-3.522 5.153-17.426 5.917-20.578.763-3.151 1.336-13.904 0-16.5z"/>
        <path fill="#4C495A" fill-rule="nonzero" d="M323 605.356v17.338s-5.11 5.966-10.586 7.644c-5.476 1.677-4.381 6.152-4.381 6.152l-1.643 7.27s-6.936 6.34-11.864 8.39c-4.928 2.05-13.324.373-19.895-4.847-2.775-2.2-1.68-6.89.825-11.902a81.134 81.134 0 0 1 11.952-16.809c2.402-2.453 3.723-7.524 4.424-11.417.518-2.915.686-5.175.686-5.175L323 605.356z"/>
        <path fill="#000" fill-rule="nonzero" d="M323 618v4.437s-5.11 6.016-10.586 7.709c-5.476 1.692-4.381 6.204-4.381 6.204l-1.643 7.332s-6.936 6.393-11.864 8.46c-4.928 2.07-13.324.377-19.895-4.887-2.775-2.219-1.68-6.95.825-12.003-.117 5.31 1.409 11.273 8.849 11.063 8.03-.263 15.767-3.161 22.085-8.273 0 0-.182-12.409 8.214-15.229A25.374 25.374 0 0 0 323 618z" opacity=".1"/>
        <path fill="#4C495A" fill-rule="nonzero" d="M389.174 649.607c-13.587 2.795-18.728-10.245-18.728-10.245s1.652-10.245-2.387-13.225a21.893 21.893 0 0 1-6.059-7.078V601.92L378.525 590l8.945 8.032.602.537s3.489 11.735 7.712 17.345c2.68 3.562 4.92 10.782 6.382 16.765.845 3.442 1.432 6.475 1.696 8.174.735 4.656-1.101 5.96-14.688 8.754z"/>
        <path fill="#000" fill-rule="nonzero" d="M389.174 649.614c-13.587 2.75-18.728-10.087-18.728-10.087s1.652-10.087-2.387-13.022a21.65 21.65 0 0 1-6.059-6.969V613c2.622 2.766 7.565 8.12 8.63 10.388 1.468 3.117 1.652 14.488 8.445 16.505 6.794 2.018 20.014 3.852 21.115-1.283a28.59 28.59 0 0 1 1.976-5.664c.845 3.39 1.432 6.375 1.696 8.048.735 4.585-1.101 5.869-14.688 8.62zM291.683 603L322 606.248v8.87c-3.42 2.014-8.322 4.15-11.074 1.956-4.067-3.233-16.157-7.34-19.926-9.065.516-2.822.683-5.009.683-5.009zM388 599.967c-4.211-1.477-11.718 4.983-21.606 9.044-1.374.652-2.875.99-4.394.989v-8.188L378.479 590l8.92 7.959c.138.686.34 1.359.601 2.008z" opacity=".1"/>
        <path fill="#5F5D7E" fill-rule="nonzero" d="M399 397.955s-.58 2.718-1.41 6.663c-1.89 8.975-5.064 24.318-5.572 28.425-.734 5.91-3.123 17.359-3.123 17.359-5.512 8.68-2.388 20.13-2.388 20.13a11.912 11.912 0 0 1 .367 8.31c-1.47 4.616-.918 4.801-.918 4.801s5.144 5.725 2.755 9.788c-2.388 4.063 3.307 10.895 3.307 10.895l-1.286 41.367 1.286 28.44s-4.225 6.094-2.777 9.049c1.447 2.955-.162 7.756-.162 7.756s.735 2.4-.919 3.694c-1.653 1.292 0 5.17 0 5.17-4.225-1.477-11.758 4.987-21.68 9.05-9.92 4.062-6.613-5.54-6.613-5.54s-7.717-9.604-6.063-10.712c1.653-1.108 4.41-16.805 4.41-16.805-7.717-10.711-4.41-28.44-4.41-28.44l1.139-41.352s-1.507-6.663-.22-9.617c1.286-2.955-3.491-7.572-3.491-7.572s1.286-5.54 0-7.572c-1.286-2.031-1.654-7.571-1.654-7.571s-3.123-17.36-3.123-22.161c0-4.801-4.226-20.314-4.226-20.314 1.47-13.297-2.204-16.62-2.204-16.62-8.452 4.062-2.756 19.575-2.756 26.038 0 6.464-3.675 16.436-3.675 16.436s-1.653 23.454-3.674 27.886c-2.021 4.432-3.124 14.035-3.124 14.035s3.307 7.756 1.764 11.634c-1.543 3.879 0 20.868 0 20.868s-1.212 24.931-4.52 33.057c-3.306 8.126.552 13.85 2.984 17.729 2.425 3.878 1.977 8.31-1.33 10.341-3.307 2.032-2.388 3.14.184 6.28 2.572 3.139 0 12.557 0 12.557s-10.472 8.31-15.066 4.617c-4.593-3.694-19.29-8.495-21.128-9.788-1.837-1.293-1.286-4.986 1.47-7.94 2.756-2.956 1.286-3.325 1.286-3.325-7.349-2.216-2.756-9.049-2.756-9.049s7.533-8.126 4.41-12.558c-3.124-4.432-3.124-17.359-1.103-19.944 2.021-2.586-.367-9.973-.367-9.973l-4.388-36.011s-.205-7.572 2.183-8.495c2.389-.923 4.226-3.14 2.389-7.018-1.838-3.878 2.02-12.557 2.02-12.557 2.205-2.955-1.653-15.698-6.246-22.715-4.593-7.018-1.837-27.516-1.837-27.516s-3.491-4.987-3.491-7.387a10.39 10.39 0 0 0-1.102-4.433c-1.588-2.533-1.28-8.266-.588-13.289.668-4.86 1.69-9.056 1.69-9.056L399 397.955z"/>
        <path fill="#FDC2CC" fill-rule="nonzero" d="M364 188.44L328.027 197s-17.712-15.26-13.33-23.447c1.505-2.814 2.17-7.615 2.396-12.692.175-3.967.08-8.113-.088-11.62-.255-5.068-.664-8.812-.664-8.812s36.885-21.215 35.607 0c-.26 3.532-.179 7.083.241 10.6.261 2.501.977 4.932 2.111 7.167 1.972 3.58 4.405 3.633 4.405 3.633l5.295 26.61z"/>
        <path fill="#000" fill-rule="nonzero" d="M351 150.688c-10.75 7.693-25.402 6.964-35.333-1.756a161.611 161.611 0 0 0-.667-8.664s37.042-20.853 35.758 0c-.261 3.473-.18 6.963.242 10.42z" opacity=".1"/>
        <circle cx="334.5" cy="127.5" r="28.5" fill="#FDC2CC" fill-rule="nonzero"/>
        <path fill="#000" fill-rule="nonzero" d="M364 188.397L328.027 197s-17.712-15.337-13.33-23.566c1.505-2.828 2.17-7.653 2.396-12.756.794 4.437 3.12 8.433 6.552 11.26 8.217 5.61 6.939 12.53 6.939 12.53l14.79-.56c-.913-6.172 4.566-9.539 6.392-10.287 1.826-.748.913-4.115.913-4.115L354.3 158c1.972 3.599 4.405 3.65 4.405 3.65L364 188.398zM399 397.835s-.583 2.609-1.418 6.394c-4.017-.206-9.326-.355-11.689.163-4.061.886-20.307 1.24-20.307 1.24L325.342 407v-1.19c-4.629.035-9.252.33-13.845.885-6.83.886-17.538-.354-24.368-1.417A27.11 27.11 0 0 1 281 403.69c.672-4.664 1.698-8.69 1.698-8.69L399 397.835z" opacity=".1"/>
        <path fill="#6C63FF" fill-rule="nonzero" d="M396.417 279.918c-.583 3.443-.155 9.148.583 14.78 1.115 8.544 2.924 16.918 2.924 16.918s7.569 47.916 3.323 54.182c-4.246 6.266 0 36.674 0 36.674s-12.737-1.106-16.798-.185c-4.061.922-20.306 1.29-20.306 1.29L325.901 405v-1.238c-4.629.037-9.252.345-13.845.921-6.83.921-17.536-.369-24.366-1.474-6.83-1.106-9.6-3.318-8.861-4.423.738-1.106-.739-31.33-.739-31.33l-.184-24.51s-.185-17.324 4.061-21.194c1.735-1.577 3.16-7.408 4.246-13.748 1.558-9.178 2.4-19.424 2.4-19.424l-28.06-75.007L260 212.1s8.122-12.532 6.83-18.613c-1.292-6.082 7.569-11.426 7.569-11.426s16.798-7.372 17.905-9.584c1.108-2.211 12.738-2.764 12.738-2.764s6.645-3.501 7.79-5.772a4.364 4.364 0 0 1 3.093-2.514 18.554 18.554 0 0 0 6.653 11.235c8.307 5.529 7.015 12.347 7.015 12.347l14.952-.553c-.923-6.081 4.615-9.398 6.461-10.136 1.846-.737.923-4.054.923-4.054l1.728-11.935c.797-1.983 6.394 5.61 6.394 5.61s14.214 4.85 15.137 5.22c.923.368 12.922 4.054 12.922 4.054s14.768 9.583 14.768 11.979c0 2.395 8.122 15.296 8.122 15.296l-.273 1.46c-1.876 10.157-12.959 70.045-14.31 77.97z"/>
        <path fill="#FDC2CC" fill-rule="nonzero" d="M337.078 249.894s-32.577-8.606-35.778-10.664c-3.202-2.058-22.032 9.916.941 26.192 0 0 28.092 5.8 35.608 0 7.515-5.8-.77-15.528-.77-15.528z"/>
        <path fill="#000" fill-rule="nonzero" d="M406.832 200l3.868.185 11.421 30.74s6.816 16.112 8.105 18.705c1.29 2.592.737 13.333 0 16.481-.736 3.148-5.526 17.037-5.71 20.556-.184 3.518-8.842 7.037-17.684 6.481-8.842-.555-29.474 2.222-29.474 2.222s-22.034-2.315-35.553 4.63c0 0-8.657-17.963-7.736-51.481 0 0 15.29-.926 19.157.555 3.869 1.482 22.658 5.74 25.053 3.519 2.395-2.223 13.263 4.074 13.263 4.074a9.43 9.43 0 0 0 0-7.778c-1.842-4.445-4.973-18.333-.92-22.778 4.052-4.444 16.21-26.111 16.21-26.111z" opacity=".1"/>
        <path fill="#000" fill-rule="nonzero" d="M397.379 295.37c-9.093.623-19.263 2-19.263 2s-21.909-2.318-35.354 4.63c0 0-8.61-17.963-7.694-51.481 0 0 15.204-.926 19.05.555 3.848 1.482 22.532 5.74 24.913 3.519 2.382-2.223 13.19 4.074 13.19 4.074a9.479 9.479 0 0 0 0-7.778c-1.832-4.445-4.947-18.333-.917-22.778 4.03-4.444 16.12-26.111 16.12-26.111l3.576.17c-1.861 10.208-12.86 70.386-14.2 78.349-.579 3.459-.154 9.192.579 14.851z" opacity=".1"/>
        <path fill="#6C63FF" fill-rule="nonzero" d="M406.832 200l3.868.185 11.421 30.74s6.816 16.112 8.105 18.705c1.29 2.592.737 13.333 0 16.481-.736 3.148-5.526 17.037-5.71 20.556-.184 3.518-8.842 7.037-17.684 6.481-8.842-.555-29.474 2.222-29.474 2.222s-22.034-2.315-35.553 4.63c0 0-8.657-17.963-7.736-51.481 0 0 15.29-.926 19.157.555 3.869 1.482 22.658 5.74 25.053 3.519 2.395-2.223 13.263 4.074 13.263 4.074a9.43 9.43 0 0 0 0-7.778c-1.842-4.445-4.973-18.333-.92-22.778 4.052-4.444 16.21-26.111 16.21-26.111z"/>
        <path fill="#DFE6F5" fill-rule="nonzero" d="M372.479 271.056l-4.596-2.854 25.612-41.476 4.596 2.854z"/>
        <ellipse cx="401.94" cy="218.198" fill="#DFE6F5" fill-rule="nonzero" rx="15.599" ry="10.928" transform="rotate(-58.235 401.94 218.198)"/>
        <ellipse cx="401.94" cy="218.198" fill="#000" fill-rule="nonzero" opacity=".1" rx="11.197" ry="7.844" transform="rotate(-58.235 401.94 218.198)"/>
        <path fill="#53526B" fill-rule="nonzero" d="M359.388 292.255l-4.596-2.854 15.936-25.807 4.596 2.853z"/>
        <path fill="#FDC2CC" fill-rule="nonzero" d="M327.402 292l11.388-3.102s56.198 1.46 37.34-21.164c0 0-9.894-9.305-30.618-1.824-20.724 7.48-26.512 8.392-26.512 8.392L327.402 292z"/>
        <circle cx="319" cy="192" r="2" fill="#000" fill-rule="nonzero" opacity=".1"/>
        <circle cx="358" cy="191" r="2" fill="#000" fill-rule="nonzero" opacity=".1"/>
        <circle cx="319" cy="191" r="2" fill="#FFF" fill-rule="nonzero"/>
        <circle cx="322" cy="224" r="2" fill="#000" fill-rule="nonzero" opacity=".1"/>
        <circle cx="358" cy="221" r="2" fill="#000" fill-rule="nonzero" opacity=".1"/>
        <circle cx="322" cy="222" r="2" fill="#FFF" fill-rule="nonzero"/>
        <circle cx="358" cy="328" r="2" fill="#000" fill-rule="nonzero" opacity=".1"/>
        <circle cx="328" cy="328" r="2" fill="#000" fill-rule="nonzero" opacity=".1"/>
        <circle cx="358" cy="327" r="2" fill="#FFF" fill-rule="nonzero"/>
        <circle cx="331" cy="366" r="2" fill="#000" fill-rule="nonzero" opacity=".1"/>
        <circle cx="358" cy="362" r="2" fill="#000" fill-rule="nonzero" opacity=".1"/>
        <circle cx="331" cy="364" r="2" fill="#FFF" fill-rule="nonzero"/>
        <circle cx="328" cy="327" r="2" fill="#FFF" fill-rule="nonzero"/>
        <circle cx="358" cy="362" r="2" fill="#FFF" fill-rule="nonzero"/>
        <circle cx="358" cy="191" r="2" fill="#FFF" fill-rule="nonzero"/>
        <circle cx="358" cy="220" r="2" fill="#FFF" fill-rule="nonzero"/>
        <path fill="#000" fill-rule="nonzero" d="M362 298s.244 50.898.976 60c0 0 .266-57.6-.976-60zM371.027 321c-.765 0 15.2 59.541 15.94 63.808.742 4.266-11.492-63.808-15.94-63.808zM383 311c0 .573 8.86 33.223 13.29 34.941C400.718 347.66 383 311 383 311zM418 250s-18.446.792-18.989 3.356C398.47 255.92 418 250 418 250zM386 491s-13.876 5.622-11.785 5.985C376.305 497.348 386 491 386 491zM357.02 482.16c-.52-1.228 8.98 4.99 8.98 5.757 0 .768-8.246-4.03-8.98-5.757zM371 502.024s10.249-.56 10.968 3.717c.72 4.278-10.968-3.717-10.968-3.717zM295 502s11.063-2.25 11.956 0c.892 2.25-11.956 0-11.956 0zM298.938 571s.504 9.518-1.358 11.757c-1.862 2.24 1.358-11.757 1.358-11.757zM298 591.97c3.542.29 22.18-2.32 21.999 0-.181 2.318-21.999 0-21.999 0zM385 581.056s-6.293-.573-4.759 1.944l4.759-1.944zM264.818 211.7h-3.472l-5.3 19.606s-1.827 6.843-3.654 8.508c-1.828 1.665 1.644 16.831 1.644 16.831s-2.01 10.728-3.654 13.502c-1.645 2.774 2.558 9.618 2.558 9.618l8.406 19.975 22.294 5.919s39.29 8.693 41.116 9.988c1.828 1.294 3.473-.555 4.752-12.577 1.279-12.023 4.75-35.327 7.492-36.437 0 0-21.929 2.404-23.756 2.034-1.827-.37-10.599.185-10.599.185s-11.513-.74-13.34.37c-1.827 1.11 2.376-5.372 2.376-5.372.77-2.968.77-6.086 0-9.054-1.28-4.994-2.01-61.591-26.863-43.096z" opacity=".1"/>
        <path fill="#000" fill-rule="nonzero" d="M336 267.633c-2.774 1.11-6.287 24.414-7.582 36.437-1.294 12.022-2.958 13.871-4.807 12.577-1.502-1.05-28.004-6.984-37.908-9.174 1.56-9.211 2.404-19.495 2.404-19.495L260 212.7h2.959c25.148-18.495 25.888 38.102 27.182 43.096a17.846 17.846 0 0 1 0 9.055s-4.253 6.481-2.404 5.371c1.85-1.11 13.499-.37 13.499-.37s8.876-.554 10.725-.185c1.85.37 24.039-2.034 24.039-2.034z" opacity=".1"/>
        <path fill="#6C63FF" fill-rule="nonzero" d="M263.818 212.7h-3.472l-5.3 19.606s-1.827 6.843-3.654 8.508c-1.828 1.665 1.644 16.831 1.644 16.831s-2.01 10.728-3.654 13.502c-1.645 2.774 2.558 9.618 2.558 9.618l8.406 19.975 22.294 5.919s39.29 8.693 41.116 9.988c1.828 1.294 3.473-.555 4.752-12.577 1.279-12.023 4.75-35.327 7.492-36.437 0 0-21.929 2.404-23.756 2.035-1.827-.37-10.599.184-10.599.184s-11.513-.74-13.34.37c-1.827 1.11 2.376-5.372 2.376-5.372.77-2.968.77-6.086 0-9.054-1.28-4.994-2.01-61.591-26.863-43.096z"/>
        <path fill="#000" fill-rule="nonzero" d="M276 279s-10.012 19.018-11.833 16.824C262.347 293.629 276 279 276 279zM265 269s-9.156 7.749-4.847 9.767C264.46 280.787 265 269 265 269zM274 259c.747.183 13.812 2.73 13.998 3.838C288.185 263.946 274 259 274 259zM362.85 123.468a1.921 1.921 0 0 0-1.248 1.996c-.745.67-1.789-.12-2.395-.975-.613-.85-1.306-1.9-2.234-1.78-.44.143-.867.325-1.277.544-1.46.476-2.694-1.274-3.511-2.807l-4.27-8.056c-2.855 1.69-6.228-.082-9.06-1.832-2.833-1.75-6.205-3.53-9.067-1.839-4.197 2.472-4.35 10.714-8.701 12.747-1.402.655-3.03.513-4.33 1.414-1.284.894-1.977 2.614-2.554 4.26a4.527 4.527 0 0 1-1.43 2.404 3.094 3.094 0 0 1-1.476.365 6.215 6.215 0 0 1-3.795-.544c-1.275-.816-1.82-2.426-1.315-3.871.035-.075.074-.147.117-.216.468-.577.888-1.192 1.256-1.84.438-1.183-.19-2.56-.051-3.841.226-2.19 2.496-3.343 2.883-5.495.16-.841-.007-1.742.146-2.59.022-.112.051-.222.088-.329l-1.336.939c1.497-1.78 2.248-4.252 3.343-6.41 2.458-4.778 6.726-8.321 11.812-9.807 4.76-1.414 9.789-1.027 14.592.172 4.568 1.16 8.944 3 12.987 5.457a12.94 12.94 0 0 1 3.781 3.135 24.3 24.3 0 0 1 2.242 4.221c1.416 2.993 5.285 5.763 2.204 6.18-2.562.35-.226 2.182 1.117 3.417.303.243.564.535.774.864a3.145 3.145 0 0 1-.16 2.986c-.52.67 1.583.804.868 1.131z" opacity=".1"/>
        <path fill="#865A61" fill-rule="nonzero" d="M362.85 123.468a1.921 1.921 0 0 0-1.248 1.996c-.745.67-1.789-.12-2.395-.975-.613-.85-1.306-1.9-2.234-1.78-.44.143-.867.325-1.277.544-1.46.476-2.694-1.274-3.511-2.807l-4.27-8.056c-2.855 1.69-6.228-.082-9.06-1.832-2.833-1.75-6.205-3.53-9.067-1.839-4.197 2.472-4.35 10.714-8.701 12.747-1.402.655-3.03.513-4.33 1.414-1.284.894-1.977 2.614-2.554 4.26a4.527 4.527 0 0 1-1.43 2.404 3.094 3.094 0 0 1-1.476.365 6.215 6.215 0 0 1-3.795-.544c-1.275-.816-1.82-2.426-1.315-3.871.035-.075.074-.147.117-.216.468-.577.888-1.192 1.256-1.84.438-1.183-.19-2.56-.051-3.841.226-2.19 2.496-3.343 2.883-5.495.16-.841-.007-1.742.146-2.59.022-.112.051-.222.088-.328l-1.336.938c1.497-1.78 2.248-4.252 3.343-6.41 2.458-4.778 6.726-8.321 11.812-9.807 4.76-1.414 9.789-1.027 14.592.172 4.568 1.16 8.944 3 12.987 5.457a12.94 12.94 0 0 1 3.781 3.135 24.3 24.3 0 0 1 2.242 4.221c1.416 2.993 5.285 5.763 2.204 6.18-2.562.35-.226 2.182 1.117 3.417.303.243.564.535.774.864a3.145 3.145 0 0 1-.16 2.986c-.52.67 1.583.804.868 1.131z"/>
        <path fill="#000" fill-rule="nonzero" d="M360.956 116.942l-.291 3.062S330.094 81.328 306.313 125l-.313-1.425c.467-.564.886-1.164 1.253-1.797.437-1.156-.19-2.501-.05-3.752.225-2.138 2.49-3.266 2.877-5.368.16-.821-.007-1.701.146-2.53.021-.109.05-.216.087-.32l-1.333.916c1.493-1.738 2.244-4.153 3.337-6.262a19.311 19.311 0 0 1 11.788-9.578c4.75-1.381 9.77-1.003 14.564.168a48.009 48.009 0 0 1 12.962 5.33 12.857 12.857 0 0 1 3.774 3.062 23.569 23.569 0 0 1 2.236 4.124c1.414 2.923 5.275 5.629 2.2 6.036-2.557.342-.225 2.13 1.115 3.338z" opacity=".1"/>
        <g fill="#000" fill-rule="nonzero" opacity=".1">
            <path d="M363.048 122.062c-.31.338-.44.797-.351 1.241-.754.646-1.812-.114-2.425-.94-.621-.817-1.323-1.828-2.262-1.713a8.261 8.261 0 0 0-1.294.523c-1.479.46-2.728-1.226-3.556-2.703-1.442-2.589-2.883-5.175-4.325-7.76-2.89 1.628-6.306-.078-9.175-1.764-2.868-1.685-6.284-3.399-9.182-1.77-4.25 2.38-4.406 10.319-8.812 12.276-1.42.631-3.068.495-4.384 1.363-1.301.86-2.004 2.517-2.588 4.102a4.325 4.325 0 0 1-1.449 2.316c-.46.234-.973.354-1.493.352a6.585 6.585 0 0 1-3.844-.524 3.359 3.359 0 0 1-1.441-1.971c-.3 1.315.274 2.674 1.44 3.405a6.585 6.585 0 0 0 3.845.524 3.263 3.263 0 0 0 1.493-.352 4.325 4.325 0 0 0 1.45-2.316c.583-1.585 1.286-3.241 2.587-4.102 1.316-.868 2.964-.731 4.384-1.362 4.406-1.958 4.561-9.897 8.812-12.278 2.898-1.628 6.314.086 9.182 1.772 2.869 1.685 6.284 3.392 9.175 1.764 1.442 2.581 2.883 5.168 4.325 7.76.828 1.476 2.077 3.162 3.556 2.703.415-.21.848-.386 1.294-.524.939-.115 1.64.897 2.262 1.714.613.825 1.67 1.585 2.425.94-.085-.847.437-1.64 1.264-1.922.576-.251-.65-.385-.913-.754zM360.631 114.897c.224-.087.459-.144.698-.17 1.376-.178 1.381-.796.837-1.678a2.211 2.211 0 0 1-.837.243c-1.484.193-1.343.853-.698 1.605zM363.463 120.904c.103-.462.1-.94-.007-1.402a2.04 2.04 0 0 1-.375.79c-.231.284.054.468.382.612zM307.958 118.839c-.016.082-.034.162-.043.248-.03.645.018 1.292.144 1.927a6.584 6.584 0 0 0-.101-2.175zM310.96 110.09c-.349.639-.764 1.24-1.241 1.797l1.193-.797c-.006-.334.01-.669.047-1z"/>
        </g>
        <path fill="#6C63FF" fill-rule="nonzero" d="M306.407 124s-4.49-19.764-3.062-22.933c0 0-3.878-7.831-3.878-9.696a18.317 18.317 0 0 0-2.857-8.763c-2.041-3.17-4.287-17.9 7.96-21.442 12.246-3.542 21.635-6.712 23.064-9.136 1.429-2.424 22.452-.932 28.167 8.39 5.715 9.323 9.389 7.458 9.389 7.458s8.777 5.407 8.777 10.255c0 4.848-2.654 7.272 0 8.39 2.653 1.12.612 21.256-11.022 21.815l-1.02 10.628s-31.23-38.968-55.518 5.034z"/>
        <path fill="#000" fill-rule="nonzero" d="M308.496 66S306.68 81.727 310 87l-1.504-21zM320 62s-6.29 16.774-4.76 20L320 62zM326 56s-3.075 22.219-1.6 24l1.6-24zM334 62s-5.775 14.058-3.447 16L334 62zM345 65s-6.08 11.89-4.83 14L345 65zM358 76s-7.294 1.826-5.798 4L358 76zM366 87s-5.972 3.27-4.863 5L366 87zM302 102.11s41.87-18.047 60 7.89c0 0-22.006-19.854-60-7.89z" opacity=".1"/>
        <path fill="#53526B" fill-rule="nonzero" d="M288 239.847l5.748-5.847L310 250.153 304.252 256l-14.947-14.855z"/>
        <path fill="#DFE6F5" fill-rule="nonzero" d="M250 203s25.38 2.176 49 28.965L289.155 242 250 203z"/>
        <path fill="#FDC2CC" fill-rule="nonzero" d="M327.098 248.894s-24.107-8.606-26.476-10.664c-2.37-2.058-16.304 9.916.696 26.192 0 0 20.789 5.8 26.35 0s-.57-15.528-.57-15.528z"/>
    </g>
</svg>
