<?xml version="1.0" encoding="UTF-8"?>
<svg width="364px" height="160px" viewBox="0 0 364 160" version="1.1" xmlns="http://www.w3.org/2000/svg" xmlns:xlink="http://www.w3.org/1999/xlink">
    <!-- Generator: Sketch 59.1 (86144) - https://sketch.com -->
    <title>FAQ</title>
    <desc>Created with Sketch.</desc>
    <g id="Home" stroke="none" stroke-width="1" fill="none" fill-rule="evenodd">
        <g id="eatple_desktop_FAQ" transform="translate(0.000000, -173.000000)" fill="#F8F8FA" fill-rule="nonzero">
            <path d="M0,322.333333 L34.9425287,322.333333 L34.9425287,263.298851 L85.7011494,263.298851 L85.7011494,234.977011 L34.9425287,234.977011 L34.9425287,203.896552 L92.137931,203.896552 L92.137931,175.574713 L0,175.574713 L0,322.333333 Z M133.333333,322.333333 L140.321839,296.586207 L185.563218,296.586207 L192.551724,322.333333 L228.045977,322.333333 L181.149425,175.574713 L144.551724,175.574713 L97.8390805,322.333333 L133.333333,322.333333 Z M147.494253,269.367816 L162.942529,212.54023 L178.206897,269.367816 L147.494253,269.367816 Z M363.770115,312.402299 L347.034483,298.609195 C354.574713,285.367816 356.965517,268.448276 356.965517,248.954023 C356.965517,205.367816 342.252874,173 296.827586,173 C251.402299,173 236.505747,205.551724 236.505747,248.954023 C236.505747,293.091954 251.770115,324.908046 296.827586,324.908046 C309.149425,324.908046 319.632184,322.333333 327.724138,317.551724 L345.563218,333 L363.770115,312.402299 Z M271.634612,250.114596 L271.632184,248.954023 C271.632184,210.71954 279.563108,201.685278 296.317185,201.508416 L296.827586,201.505747 C313.747126,201.505747 322.022989,211.252874 322.022989,248.954023 L322.017436,250.816436 C321.930154,265.178068 320.806943,274.235749 318.16092,280.586207 L308.229885,272.310345 L292.597701,288.494253 L301.793103,296.034483 C300.321839,296.402299 298.482759,296.586207 296.827586,296.586207 C279.895172,296.586207 271.794924,288.114538 271.634612,250.114596 L271.634612,250.114596 Z" id="FAQ"></path>
        </g>
    </g>
</svg>